<svg xmlns="http://www.w3.org/2000/svg" xmlns:xlink="http://www.w3.org/1999/xlink" xmlns:lucid="lucid" width="1060" height="2140"><g transform="translate(-180 -100)" lucid:page-tab-id="VSeI~C2esRCg"><path d="M0 0h1441.25v2292.3H0z" fill="#fff"/><path d="M906 120c24.3 0 44 17.9 44 40s-19.7 40-44 40H774c-24.3 0-44-17.9-44-40s19.7-40 44-40z" stroke="#000" stroke-opacity="0" fill="#ff8839"/><use xlink:href="#a" transform="matrix(1,0,0,1,735.0000000000008,125) translate(20.052842881944443 40.88802083333333)"/><use xlink:href="#b" transform="matrix(1,0,0,1,735.0000000000008,125) translate(80.72938368055554 40.88802083333333)"/><path d="M760 266.14a9.08 9.08 0 0 1 7.94-9l144.12-18.26a7.05 7.05 0 0 1 7.94 7V352a8 8 0 0 1-8 8H768a8 8 0 0 1-8-8z" stroke="#000" stroke-opacity="0" stroke-width="2" fill="#ff8839"/><use xlink:href="#c" transform="matrix(1,0,0,1,765.0000000000005,263.22662661863365) translate(13.456651475694457 24.627604166666668)"/><use xlink:href="#d" transform="matrix(1,0,0,1,765.0000000000005,263.22662661863365) translate(27.658962673611107 41.260525173611114)"/><use xlink:href="#e" transform="matrix(1,0,0,1,765.0000000000005,263.22662661863365) translate(103.40462239583334 41.260525173611114)"/><use xlink:href="#f" transform="matrix(1,0,0,1,765.0000000000005,263.22662661863365) translate(37.127170138888886 57.89344618055556)"/><use xlink:href="#g" transform="matrix(1,0,0,1,765.0000000000005,263.22662661863365) translate(93.93641493055556 57.89344618055556)"/><use xlink:href="#h" transform="matrix(1,0,0,1,765.0000000000005,263.22662661863365) translate(32.39306640625 74.52636718750001)"/><path d="M460 737.8a8 8 0 0 1 8-8h144a8 8 0 0 1 8 8V812a8 8 0 0 1-8 8H468a8 8 0 0 1-8-8z" stroke="#4c535d" stroke-width="2" fill="#dfe3e8"/><use xlink:href="#i" transform="matrix(1,0,0,1,464.99995,734.8139768230521) translate(38.59407552083335 47.21039496527777)"/><path d="M841.34 201v45.84" stroke="#5e5e5e" stroke-width="2" fill="none"/><path d="M842.34 201.03h-2V200h2zM842.34 247.7l-2 .27v-1.16h2zM655.6 571h-29.56l-.82.07-.76.18-.73.3-.67.4-.6.52-.5.6-.4.66-.3.73-.2.76-.06.82v78l-.08 1.06-.26 1.06-.42 1.02-.57.94-.72.83-.83.72-.94.57-1.02.42-1.06.26-1.06.08h-68l-.82.07-.76.18-.73.3-.67.4-.6.52-.5.6-.4.66-.3.73-.2.76-.06.82v44.27h-2v-44.34l.08-1.06.26-1.06.42-1.02.57-.94.72-.83.83-.72.94-.57 1.02-.42 1.06-.26 1.06-.08h68l.82-.07.76-.18.73-.3.67-.4.6-.52.5-.6.4-.66.3-.73.2-.76.06-.82v-78l.08-1.06.26-1.06.42-1.02.57-.94.72-.83.83-.72.94-.57 1.02-.42 1.06-.26 1.06-.08h29.63zm70.88 0H687.6v-2h38.88z" stroke="#5e5e5e" stroke-width=".05" fill="#5e5e5e"/><path d="M727.5 570l.1 1h-1.14v-2h1.13z" fill="#5e5e5e"/><path d="M727.5 570l.12 1.02h-1.2V569h1.2zm-1-.98V571h1.06l-.1-.98.1-.98z" stroke="#5e5e5e" stroke-width=".05" fill="#5e5e5e"/><path d="M540 725.58l-4.63-14.27h9.26z" fill="#5e5e5e"/><path d="M540 728.8l-6-18.5h12zm-3.26-16.5l3.26 10.04 3.26-10.03z" stroke="#5e5e5e" stroke-width=".05" fill="#5e5e5e"/><use xlink:href="#j" transform="matrix(1,0,0,1,655.593169916438,560.625) translate(0.004999999999999005 14.800347222222223)"/><path d="M1055.1 569.08l1.06.26 1.02.42.94.57.83.72.72.83.57.94.42 1.02.26 1.06.08 1.06v78l.07.82.18.76.3.73.4.67.52.6.6.5.66.4.73.3.76.2.82.06h68l1.06.08 1.06.26 1.02.42.94.57.83.72.72.83.57.94.42 1.02.26 1.06.08 1.06v94.54h-2v-94.46l-.07-.82-.18-.76-.3-.73-.4-.67-.52-.6-.6-.5-.66-.4-.73-.3-.76-.2-.82-.06h-68l-1.06-.08-1.06-.26-1.02-.42-.94-.57-.83-.72-.72-.83-.57-.94-.42-1.02-.26-1.06-.08-1.06v-78l-.07-.82-.18-.76-.3-.73-.4-.67-.52-.6-.6-.5-.66-.4-.73-.3-.76-.2-.82-.06h-24.7v-2h24.78zM953.52 571v-2h43.74v2z" stroke="#5e5e5e" stroke-width=".05" fill="#5e5e5e"/><path d="M953.54 571h-1.13l.12-1-.1-1h1.12z" fill="#5e5e5e"/><path d="M953.57 571.02h-1.2l.12-1.02-.12-1.02h1.2zm-1.13-2l.1.98-.1.98h1.07V569z" stroke="#5e5e5e" stroke-width=".05" fill="#5e5e5e"/><path d="M1140 775.76l-4.63-14.26h9.27z" fill="#5e5e5e"/><path d="M1140 779l-6-18.5h12zm-3.26-16.5l3.26 10.03 3.26-10.03z" stroke="#5e5e5e" stroke-width=".05" fill="#5e5e5e"/><use xlink:href="#k" transform="matrix(1,0,0,1,997.2554245998857,560.625) translate(0.004999999999999005 14.800347222222223)"/><path d="M760 401.74a6 6 0 0 1 6-6h148a6 6 0 0 1 6 6v48.1a6 6 0 0 1-6 6H766a6 6 0 0 1-6-6z" stroke="#4c535d" stroke-width="2" fill="#dfe3e8"/><use xlink:href="#l" transform="matrix(1,0,0,1,772.0000000000005,407.7439038847207) translate(7.3234592013889 24.003906249999996)"/><path d="M540 822v46.05" stroke="#4c535d" stroke-width="2" fill="none"/><path d="M541 822.03h-2V821h2z" stroke="#4c535d" stroke-width=".05" fill="#4c535d"/><path d="M540 868.02v1.03" stroke="#4c535d" stroke-width="2" fill="none"/><path d="M840 361v32.74" stroke="#5e5e5e" stroke-width="2" fill="none"/><path d="M841 361.03h-2V360h2zM841 394.74h-2v-1.02h2z" stroke="#5e5e5e" stroke-width=".05" fill="#5e5e5e"/><path d="M833.17 504.16a13.14 13.14 0 0 1 13.66 0l101.34 61.68a4.87 4.87 0 0 1 0 8.32l-101.34 61.68a13.14 13.14 0 0 1-13.66 0l-101.34-61.68a4.87 4.87 0 0 1 0-8.32z" stroke="#ff8839" stroke-width="4" fill="#fff"/><use xlink:href="#m" transform="matrix(1,0,0,1,725.0000000000009,500) translate(74.46506944444445 57.80208333333333)"/><use xlink:href="#n" transform="matrix(1,0,0,1,725.0000000000009,500) translate(104.87001736111111 57.80208333333333)"/><use xlink:href="#o" transform="matrix(1,0,0,1,725.0000000000009,500) translate(18.722664930555574 75.60633680555554)"/><use xlink:href="#p" transform="matrix(1,0,0,1,725.0000000000009,500) translate(109.93750868055557 75.60633680555554)"/><use xlink:href="#q" transform="matrix(1,0,0,1,725.0000000000009,500) translate(140.34245659722222 75.60633680555554)"/><use xlink:href="#r" transform="matrix(1,0,0,1,725.0000000000009,500) translate(201.15235243055554 75.60633680555554)"/><use xlink:href="#s" transform="matrix(1,0,0,1,725.0000000000009,500) translate(64.33008680555557 93.41059027777776)"/><path d="M840 457.84v41.4" stroke="#5e5e5e" stroke-width="2" fill="none"/><path d="M841 457.86h-2v-1.02h2zM841 500.3l-1-.06-1 .06v-1.1h2z" stroke="#5e5e5e" stroke-width=".05" fill="#5e5e5e"/><path d="M447.5 866a6 6 0 0 1 6-6h168a6 6 0 0 1 6 6v28a6 6 0 0 1-6 6h-168a6 6 0 0 1-6-6z" stroke="#000" stroke-width="2" fill="#fff"/><path d="M465.5 860v40m144-40v40" stroke="#000" stroke-width="2" fill="none"/><use xlink:href="#t" transform="matrix(1,0,0,1,474.99993750000016,865) translate(1.8234592013888786 19.74338107638889)"/><path d="M420 926a6 6 0 0 1 6-6h223a6 6 0 0 1 6 6v28a6 6 0 0 1-6 6H426a6 6 0 0 1-6-6z" stroke="#000" stroke-width="2" fill="#fff"/><path d="M443.5 920v40m188-40v40" stroke="#000" stroke-width="2" fill="none"/><use xlink:href="#u" transform="matrix(1,0,0,1,454.3749093750002,925) translate(-5.1810980902777715 19.74338107638889)"/><path d="M537.5 918v-16" stroke="#5e5e5e" stroke-width="2" fill="none"/><path d="M538.5 919h-2v-1.03h2zM538.5 902.03h-2V901h2z" stroke="#5e5e5e" stroke-width=".05" fill="#5e5e5e"/><path d="M1060 788a8 8 0 0 1 8-8h144a8 8 0 0 1 8 8v44a8 8 0 0 1-8 8h-144a8 8 0 0 1-8-8z" stroke="#4c535d" stroke-width="2" fill="#dfe3e8"/><use xlink:href="#v" transform="matrix(1,0,0,1,1065,785) translate(3.988444010416714 22.502604166666657)"/><use xlink:href="#w" transform="matrix(1,0,0,1,1065,785) translate(89.20231119791666 22.502604166666657)"/><use xlink:href="#x" transform="matrix(1,0,0,1,1065,785) translate(18.19075520833337 39.135525173611086)"/><use xlink:href="#y" transform="matrix(1,0,0,1,1065,785) translate(56.06358506944446 39.135525173611086)"/><path d="M537.5 962v67.06a6 6 0 0 0 6 6h198" stroke="#4c535d" stroke-width="2" fill="none"/><path d="M538.5 962.03h-2V961h2z" stroke="#4c535d" stroke-width=".05" fill="#4c535d"/><path d="M756.76 1035.06l-14.26 4.63v-9.28z" stroke="#4c535d" stroke-width="2" fill="#4c535d"/><path d="M1140 842v187.06a6 6 0 0 1-6 6H938.5" stroke="#5e5e5e" stroke-width="2" fill="none"/><path d="M1141 842.03h-2V841h2z" stroke="#5e5e5e" stroke-width=".05" fill="#5e5e5e"/><path d="M923.24 1035.06l14.26-4.64v9.27z" stroke="#5e5e5e" stroke-width="2" fill="#5e5e5e"/><path d="M740 924.6a6 6 0 0 1 6-6h168a6 6 0 0 1 6 6v30.8a6 6 0 0 1-6 6H746a6 6 0 0 1-6-6z" stroke="#dfe3e8" fill="#fff"/><use xlink:href="#z" transform="matrix(1,0,0,1,745.0000000000009,923.6013454861111) translate(0.9863281249999858 21.192708333333336)"/><use xlink:href="#A" transform="matrix(1,0,0,1,745.0000000000009,923.6013454861111) translate(56.99544270833333 21.192708333333336)"/><use xlink:href="#B" transform="matrix(1,0,0,1,745.0000000000009,923.6013454861111) translate(94.33485243055556 21.192708333333336)"/><path d="M840 1071.1v70.64M840 1071.14v-1.03" stroke="#4c535d" stroke-width="2" fill="none"/><path d="M840 1157l-4.63-14.26h9.26z" stroke="#4c535d" stroke-width="2" fill="#4c535d"/><path d="M833.17 1164.16a13.14 13.14 0 0 1 13.66 0l101.34 61.68a4.87 4.87 0 0 1 0 8.32l-101.34 61.68a13.14 13.14 0 0 1-13.66 0l-101.34-61.68a4.87 4.87 0 0 1 0-8.32z" stroke="#ff8839" stroke-width="4" fill="#fff"/><use xlink:href="#C" transform="matrix(1,0,0,1,725.0000000000009,1160) translate(74.46506944444445 49.052083333333336)"/><use xlink:href="#D" transform="matrix(1,0,0,1,725.0000000000009,1160) translate(104.87001736111111 49.052083333333336)"/><use xlink:href="#E" transform="matrix(1,0,0,1,725.0000000000009,1160) translate(28.85764756944445 66.85633680555556)"/><use xlink:href="#F" transform="matrix(1,0,0,1,725.0000000000009,1160) translate(69.39757812500001 66.85633680555556)"/><use xlink:href="#G" transform="matrix(1,0,0,1,725.0000000000009,1160) translate(120.07249131944445 66.85633680555556)"/><use xlink:href="#H" transform="matrix(1,0,0,1,725.0000000000009,1160) translate(64.33008680555557 84.66059027777777)"/><use xlink:href="#I" transform="matrix(1,0,0,1,725.0000000000009,1160) translate(94.73503472222222 84.66059027777777)"/><use xlink:href="#J" transform="matrix(1,0,0,1,725.0000000000009,1160) translate(155.54493055555554 84.66059027777777)"/><use xlink:href="#K" transform="matrix(1,0,0,1,725.0000000000009,1160) translate(74.46506944444445 102.46484374999999)"/><path d="M760 986a6 6 0 0 1 6-6h132a6 6 0 0 1 6 6v96c-24.05-17.03-39.02-17.03-48.1-17.03-14.4 0-33.55 17.03-47.95 17.03-8.93 0-24.05 0-47.95-17.03z" stroke="#000" stroke-opacity="0" stroke-width="3" fill="#ff8839"/><path d="M768 995a6 6 0 0 1 6-6h132a6 6 0 0 1 6 6v96c-24.05-17.03-39.02-17.03-48.1-17.03-14.4 0-33.55 17.03-47.95 17.03-8.93 0-24.05 0-47.95-17.03z" stroke="#000" stroke-opacity="0" stroke-width="3" fill="#ff8839"/><path d="M776 1004a6 6 0 0 1 6-6h132a6 6 0 0 1 6 6v96c-24.05-17.03-39.02-17.03-48.1-17.03-14.4 0-33.55 17.03-47.95 17.03-8.93 0-24.05 0-47.95-17.03z" stroke="#000" stroke-opacity="0" stroke-width="3" fill="#ff8839"/><use xlink:href="#L" transform="matrix(1,0,0,1,781.0000000000005,1003) translate(13.4921875 44.765625)"/><path d="M656.43 1231H639.8l-.82.07-.76.18-.73.3-.66.4-.6.52-.5.6-.4.66-.3.73-.2.76-.06.82v38l-.08 1.06-.26 1.06-.42 1.02-.57.94-.7.83-.84.72-.94.57-1 .42-1.08.26-1.06.08h-81.74l-.82.07-.76.18-.73.3-.67.4-.6.52-.5.6-.4.66-.3.73-.2.76-.06.82v54.46h-2v-54.54l.08-1.06.26-1.06.42-1.02.57-.94.72-.83.83-.72.94-.57 1.02-.42 1.06-.26 1.06-.08h81.74l.82-.07.77-.18.7-.3.68-.4.6-.52.5-.6.42-.66.3-.73.18-.76.06-.82v-38l.1-1.06.24-1.06.42-1.02.58-.94.7-.83.85-.72.93-.57 1.02-.42 1.07-.26 1.05-.08h16.73zm70.06 0h-38.06v-2h38.04z" stroke="#5e5e5e" stroke-width=".05" fill="#5e5e5e"/><path d="M727.5 1230l.1 1h-1.14v-2h1.13z" fill="#5e5e5e"/><path d="M727.5 1230l.12 1.03h-1.2v-2.06h1.2zm-1-.97v1.94h1.06l-.1-.97.1-.97z" stroke="#5e5e5e" stroke-width=".05" fill="#5e5e5e"/><path d="M540 1355.76l-4.63-14.26h9.26z" fill="#5e5e5e"/><path d="M540 1359l-6-18.5h12zm-3.26-16.5l3.26 10.03 3.26-10.03z" stroke="#5e5e5e" stroke-width=".05" fill="#5e5e5e"/><use xlink:href="#M" transform="matrix(1,0,0,1,656.4346531061192,1220.625) translate(0.004999999999999005 14.800347222222223)"/><path d="M1045.1 1229.08l1.06.26 1.02.42.94.57.83.72.72.83.57.94.42 1.02.26 1.06.08 1.06v38l.07.82.18.76.3.73.4.67.52.6.6.5.66.4.73.3.76.2.82.06h98l1.06.08 1.06.26 1.02.42.94.57.83.72.72.83.57.94.42 1.02.26 1.06.08 1.06v618.08l-.08 1.06-.26 1.06-.42 1.02-.57.94-.72.83-.83.72-.94.57-1.02.42-1.06.26-1.06.08h-228l-.82.07-.76.18-.73.3-.67.4-.6.52-.5.6-.4.66-.3.73-.2.76-.06.82v65.46h-2v-65.54l.08-1.06.26-1.06.42-1.02.57-.94.72-.83.83-.72.94-.57 1.02-.42 1.06-.26 1.06-.08h228l.82-.07.76-.18.73-.3.67-.4.6-.52.5-.6.4-.66.3-.73.2-.76.06-.82v-617.92l-.07-.82-.18-.76-.3-.73-.4-.67-.52-.6-.6-.5-.66-.4-.73-.3-.76-.2-.82-.06h-98l-1.06-.08-1.06-.26-1.02-.42-.94-.57-.83-.72-.72-.83-.57-.94-.42-1.02-.26-1.06-.08-1.06v-38l-.07-.82-.18-.76-.3-.73-.4-.67-.52-.6-.6-.5-.66-.4-.73-.3-.76-.2-.82-.06h-23.43v-2h23.5zm-91.58 1.92v-2h35v2z" stroke="#5e5e5e" stroke-width=".05" fill="#5e5e5e"/><path d="M953.54 1231h-1.13l.12-1-.1-1h1.12z" fill="#5e5e5e"/><path d="M953.57 1231.03h-1.2l.12-1.03-.12-1.03h1.2zm-1.13-2l.1.97-.1.97h1.07v-1.94z" stroke="#5e5e5e" stroke-width=".05" fill="#5e5e5e"/><path d="M920 1996.76l-4.63-14.26h9.26z" fill="#5e5e5e"/><path d="M920 2000l-6-18.5h12zm-3.26-16.5l3.26 10.03 3.26-10.03z" stroke="#5e5e5e" stroke-width=".05" fill="#5e5e5e"/><use xlink:href="#N" transform="matrix(1,0,0,1,988.5253126739831,1220.625) translate(0.004999999999999005 14.800347222222223)"/><path d="M460 1368a8 8 0 0 1 8-8h144a8 8 0 0 1 8 8v64a8 8 0 0 1-8 8H468a8 8 0 0 1-8-8z" stroke="#4c535d" stroke-width="2" fill="#dfe3e8"/><use xlink:href="#O" transform="matrix(1,0,0,1,471.99995,1372) translate(30.66059027777777 32.30034722222222)"/><path d="M540 1442v39.5" stroke="#5e5e5e" stroke-width="2" fill="none"/><path d="M541 1442.03h-2V1441h2z" stroke="#5e5e5e" stroke-width=".05" fill="#5e5e5e"/><path d="M540 1496.76l-4.63-14.26h9.26z" stroke="#5e5e5e" stroke-width="2" fill="#5e5e5e"/><path d="M292.85 1603.58a16 16 0 0 1 14.3 0l85.7 42.84a4 4 0 0 1 0 7.16l-85.7 42.84a16 16 0 0 1-14.3 0l-85.7-42.84a4 4 0 0 1 0-7.16z" stroke="#ff8839" stroke-width="4" fill="#fff"/><use xlink:href="#P" transform="matrix(1,0,0,1,200,1600) translate(54.397578125 45.302083333333336)"/><use xlink:href="#Q" transform="matrix(1,0,0,1,200,1600) translate(39.195104166666674 63.10633680555556)"/><path d="M490 1486a6 6 0 0 1 6-6h88a6 6 0 0 1 6 6v28a6 6 0 0 1-6 6h-88a6 6 0 0 1-6-6z" stroke="#4c535d" stroke-width="2" fill="#dfe3e8"/><use xlink:href="#R" transform="matrix(1,0,0,1,501.99995,1492) translate(21.997395833333332 14.791666666666668)"/><path d="M540 1522v32.44a6 6 0 0 1-6 6H306a6 6 0 0 0-6 6v14.94" stroke="#5e5e5e" stroke-width="2" fill="none"/><path d="M541 1522.03h-2V1521h2z" stroke="#5e5e5e" stroke-width=".05" fill="#5e5e5e"/><path d="M300 1596.65l-4.63-14.27h9.26z" stroke="#5e5e5e" stroke-width="2" fill="#5e5e5e"/><path d="M532.85 1643.58a16 16 0 0 1 14.3 0l85.7 42.84a4 4 0 0 1 0 7.16l-85.7 42.84a16 16 0 0 1-14.3 0l-85.7-42.84a4 4 0 0 1 0-7.16z" stroke="#ff8839" stroke-width="4" fill="#fff"/><use xlink:href="#P" transform="matrix(1,0,0,1,439.99995,1640) translate(54.397578125 45.302083333333336)"/><use xlink:href="#S" transform="matrix(1,0,0,1,439.99995,1640) translate(49.33008680555556 63.10633680555556)"/><path d="M772.84 1603.58a16 16 0 0 1 14.3 0l85.7 42.84a4 4 0 0 1 0 7.16l-85.7 42.84a16 16 0 0 1-14.3 0l-85.7-42.84a4 4 0 0 1 0-7.16z" stroke="#ff8839" stroke-width="4" fill="#fff"/><use xlink:href="#P" transform="matrix(1,0,0,1,679.9999,1600) translate(54.397578125 45.302083333333336)"/><use xlink:href="#T" transform="matrix(1,0,0,1,679.9999,1600) translate(44.26259548611112 63.10633680555556)"/><path d="M540 1522v99.38" stroke="#5e5e5e" stroke-width="2" fill="none"/><path d="M541 1522.03h-2V1521h2z" stroke="#5e5e5e" stroke-width=".05" fill="#5e5e5e"/><path d="M540 1636.65l-4.63-14.27h9.26z" stroke="#5e5e5e" stroke-width="2" fill="#5e5e5e"/><path d="M540 1522v32.44a6 6 0 0 0 6 6h228a6 6 0 0 1 6 6v14.94" stroke="#5e5e5e" stroke-width="2" fill="none"/><path d="M541 1522.03h-2V1521h2z" stroke="#5e5e5e" stroke-width=".05" fill="#5e5e5e"/><path d="M780 1596.65l-4.63-14.27h9.26z" stroke="#5e5e5e" stroke-width="2" fill="#5e5e5e"/><path d="M300 1701.1v36.9" stroke="#5e5e5e" stroke-width="2" fill="none"/><path d="M300 1700.1l1-.03v1.07h-2v-1.07zM301 1739h-2v-1.03h2z" stroke="#5e5e5e" stroke-width=".05" fill="#5e5e5e"/><path d="M210 1746a6 6 0 0 1 6-6h168a6 6 0 0 1 6 6v28a6 6 0 0 1-6 6H216a6 6 0 0 1-6-6z" stroke="#4c535d" stroke-width="2" fill="#dfe3e8"/><use xlink:href="#U" transform="matrix(1,0,0,1,222,1752) translate(-6.013671875 12.942708333333334)"/><path d="M540 1741.1v36.9" stroke="#5e5e5e" stroke-width="2" fill="none"/><path d="M540 1740.1l1-.03v1.07h-2v-1.07zM541 1779h-2v-1.03h2z" stroke="#5e5e5e" stroke-width=".05" fill="#5e5e5e"/><path d="M450 1786a6 6 0 0 1 6-6h168a6 6 0 0 1 6 6v28a6 6 0 0 1-6 6H456a6 6 0 0 1-6-6z" stroke="#4c535d" stroke-width="2" fill="#dfe3e8"/><use xlink:href="#V" transform="matrix(1,0,0,1,461.99995,1792) translate(-1.3462456597222285 12.942708333333334)"/><path d="M780 1701.1v36.9M780 1701.14v-1.03" stroke="#5e5e5e" stroke-width="2" fill="none"/><path d="M781 1739h-2v-1.03h2z" stroke="#5e5e5e" stroke-width=".05" fill="#5e5e5e"/><path d="M690 1746a6 6 0 0 1 6-6h168a6 6 0 0 1 6 6v28a6 6 0 0 1-6 6H696a6 6 0 0 1-6-6z" stroke="#4c535d" stroke-width="2" fill="#dfe3e8"/><use xlink:href="#W" transform="matrix(1,0,0,1,701.9999,1752) translate(3.321180555555543 14.942708333333334)"/><path d="M300 1782v122a6 6 0 0 0 6 6h134.5" stroke="#5e5e5e" stroke-width="2" fill="none"/><path d="M301 1782.03h-2V1781h2z" stroke="#5e5e5e" stroke-width=".05" fill="#5e5e5e"/><path d="M455.76 1910l-14.26 4.63v-9.27z" stroke="#5e5e5e" stroke-width="2" fill="#5e5e5e"/><path d="M540 1822v38.5" stroke="#5e5e5e" stroke-width="2" fill="none"/><path d="M541 1822.03h-2V1821h2z" stroke="#5e5e5e" stroke-width=".05" fill="#5e5e5e"/><path d="M540 1875.76l-4.63-14.26h9.26z" stroke="#5e5e5e" stroke-width="2" fill="#5e5e5e"/><path d="M780 1782v122a6 6 0 0 1-6 6H639.5" stroke="#5e5e5e" stroke-width="2" fill="none"/><path d="M781 1782.03h-2V1781h2z" stroke="#5e5e5e" stroke-width=".05" fill="#5e5e5e"/><path d="M624.24 1910l14.26-4.63v9.27z" stroke="#5e5e5e" stroke-width="2" fill="#5e5e5e"/><path d="M460 1886a6 6 0 0 1 6-6h148a6 6 0 0 1 6 6v48a6 6 0 0 1-6 6H466a6 6 0 0 1-6-6z" stroke="#4c535d" stroke-width="2" fill="#ff8839"/><g><use xlink:href="#X" transform="matrix(1,0,0,1,471.99995,1892) translate(25.326388888888886 23.791666666666668)"/></g><path d="M840 2006a6 6 0 0 1 6-6h132a6 6 0 0 1 6 6v96c-24.05-17.03-39.02-17.03-48.1-17.03-14.4 0-33.55 17.03-47.95 17.03-8.93 0-24.05 0-47.95-17.03z" stroke="#000" stroke-opacity="0" stroke-width="3" fill="#ff8839"/><path d="M848 2015a6 6 0 0 1 6-6h132a6 6 0 0 1 6 6v96c-24.05-17.03-39.02-17.03-48.1-17.03-14.4 0-33.55 17.03-47.95 17.03-8.93 0-24.05 0-47.95-17.03z" stroke="#000" stroke-opacity="0" stroke-width="3" fill="#ff8839"/><path d="M856 2024a6 6 0 0 1 6-6h132a6 6 0 0 1 6 6v96c-24.05-17.03-39.02-17.03-48.1-17.03-14.4 0-33.55 17.03-47.95 17.03-8.93 0-24.05 0-47.95-17.03z" stroke="#000" stroke-opacity="0" stroke-width="3" fill="#ff8839"/><g><use xlink:href="#Y" transform="matrix(1,0,0,1,861,2023) translate(18.826388888888886 42.91666666666667)"/></g><path d="M210 1963.2a6 6 0 0 1 6-6h318a6 6 0 0 1 6 6v30.8a6 6 0 0 1-6 6H216a6 6 0 0 1-6-6z" stroke="#000" stroke-opacity="0" stroke-width="3" fill="#fff"/><g><use xlink:href="#Z" transform="matrix(1,0,0,1,215,1962.2026909722222) translate(3.8140190972222285 21.200303819444446)"/><use xlink:href="#aa" transform="matrix(1,0,0,1,215,1962.2026909722222) translate(41.15342881944446 21.200303819444446)"/><use xlink:href="#ab" transform="matrix(1,0,0,1,215,1962.2026909722222) translate(106.49739583333336 21.200303819444446)"/><use xlink:href="#ac" transform="matrix(1,0,0,1,215,1962.2026909722222) translate(125.16710069444447 21.200303819444446)"/></g><path d="M968 2160c17.67 0 32 13.43 32 30s-14.33 30-32 30h-96c-17.67 0-32-13.43-32-30s14.33-30 32-30z" stroke="#000" stroke-opacity="0" fill="#ff8839"/><g><use xlink:href="#ad" transform="matrix(1,0,0,1,845,2165) translate(26.9921875 30.416666666666668)"/></g><path d="M920 2115.93v25.57" stroke="#5e5e5e" stroke-width="2" fill="none"/><path d="M921 2115.96h-2v-.57l2-.93z" stroke="#5e5e5e" stroke-width=".05" fill="#5e5e5e"/><path d="M920 2156.76l-4.63-14.26h9.26z" stroke="#5e5e5e" stroke-width="2" fill="#5e5e5e"/><path d="M940 415.75a6 6 0 0 1 6-6h148a6 6 0 0 1 6 6v20.08a6 6 0 0 1-6 6H946a6 6 0 0 1-6-6z" stroke="#000" stroke-opacity="0" stroke-width="3" fill="#fff"/><g><use xlink:href="#ae" transform="matrix(1,0,0,1,945,414.74963854725627) translate(2.8276909722222143 15.817708333333334)"/><use xlink:href="#af" transform="matrix(1,0,0,1,945,414.74963854725627) translate(40.16710069444444 15.817708333333334)"/><use xlink:href="#ag" transform="matrix(1,0,0,1,945,414.74963854725627) translate(105.51106770833334 15.817708333333334)"/><use xlink:href="#ah" transform="matrix(1,0,0,1,945,414.74963854725627) translate(124.18077256944446 15.817708333333334)"/></g><path d="M540 1942v112a6 6 0 0 0 6 6h275.5" stroke="#5e5e5e" stroke-width="2" fill="none"/><path d="M541 1942.03h-2V1941h2z" stroke="#5e5e5e" stroke-width=".05" fill="#5e5e5e"/><path d="M836.76 2060l-14.26 4.64v-9.28z" stroke="#5e5e5e" stroke-width="2" fill="#5e5e5e"/><defs><path d="M622-1349c296 4 497 117 497 404 0 282-193 424-485 431H353V0H162v-1349h460zm-15 684c195-3 320-88 320-277 0-184-129-255-328-254H353v531h254" id="ai"/><path d="M1000-272c3 95 12 159 101 161 21 0 41-3 59-7V-6c-44 10-86 16-139 16-141 2-191-84-197-217h-6C748-76 648 20 446 20c-207 0-318-120-318-322 0-266 194-348 454-354l236-4c12-191-40-305-222-305-140 0-220 47-232 172l-188-17c33-204 181-292 423-292 255 0 401 118 401 364v466zm-683-27c0 109 63 184 175 182 166-3 259-96 306-217 24-65 20-120 20-200-232 7-501-28-501 235" id="aj"/><path d="M1048-32c-2 300-135 456-433 456-222-1-358-88-400-267l184-25c22 99 100 157 222 156 184-2 248-125 248-315 0-64 3-133-2-194C807-100 706-13 524-12c-306 0-381-228-381-537 0-318 85-550 400-550 164 0 271 83 325 202h3c1-60 3-134 12-185h171c-13 339-4 702-6 1050zM585-145c210-8 284-178 284-406 0-192-52-331-177-392-33-16-69-22-104-22-223 2-259 184-259 414 0 229 31 415 256 406" id="ak"/><path d="M617-1102c355 0 481 238 477 599H322c5 222 84 388 301 388 144 0 244-59 284-166l158 45C1002-72 854 20 623 20c-342 0-490-220-490-568 0-346 151-554 484-554zm291 461c-18-192-90-328-289-328-194 0-287 128-295 328h584" id="al"/><g id="a"><use transform="matrix(0.009874131944444444,0,0,0.009874131944444444,0,0)" xlink:href="#ai"/><use transform="matrix(0.009874131944444444,0,0,0.009874131944444444,12.135308159722221,0)" xlink:href="#aj"/><use transform="matrix(0.009874131944444444,0,0,0.009874131944444444,24.270616319444443,0)" xlink:href="#ak"/><use transform="matrix(0.009874131944444444,0,0,0.009874131944444444,36.405924479166664,0)" xlink:href="#al"/></g><path d="M865-914c-3-187-2-380-2-570h180v1261c0 76 1 155 6 223H877c-8-49-9-116-10-174h-5C801-44 708 26 530 26c-135 0-234-46-297-139s-95-232-95-419c0-377 131-566 392-566 176 0 271 63 335 184zm-286-51c-222 0-255 197-255 427 0 229 31 425 253 425 237 0 286-195 286-441 0-238-52-411-284-411" id="am"/><path d="M684-845H543l-41-639h224" id="an"/><path d="M631 20c-350 0-501-215-501-562 0-355 162-560 502-560 250 0 399 118 446 323l-192 14c-23-124-109-196-262-196-242 0-305 171-305 415 1 245 61 427 304 427 151 0 248-77 267-215l190 12C1039-107 883 20 631 20" id="ao"/><path d="M528 20c-247 0-343-132-343-381v-721h180v686c-4 177 45 284 224 277 194-8 279-136 279-336v-627h181c3 360-6 732 6 1082H885c-4-54-7-126-8-185h-3C809-64 714 20 528 20" id="ap"/><path d="M745-142h380V0H143v-142h422v-798H246v-142h499v940zM545-1292v-192h200v192H545" id="aq"/><path d="M736-142h380V0H134v-142h422v-1200H267v-142h469v1342" id="ar"/><g id="b"><use transform="matrix(0.009874131944444444,0,0,0.009874131944444444,0,0)" xlink:href="#am"/><use transform="matrix(0.009874131944444444,0,0,0.009874131944444444,12.135308159722221,0)" xlink:href="#an"/><use transform="matrix(0.009874131944444444,0,0,0.009874131944444444,24.270616319444443,0)" xlink:href="#aj"/><use transform="matrix(0.009874131944444444,0,0,0.009874131944444444,36.405924479166664,0)" xlink:href="#ao"/><use transform="matrix(0.009874131944444444,0,0,0.009874131944444444,48.541232638888886,0)" xlink:href="#ao"/><use transform="matrix(0.009874131944444444,0,0,0.009874131944444444,60.67654079861111,0)" xlink:href="#ap"/><use transform="matrix(0.009874131944444444,0,0,0.009874131944444444,72.81184895833333,0)" xlink:href="#al"/><use transform="matrix(0.009874131944444444,0,0,0.009874131944444444,84.94715711805553,0)" xlink:href="#aq"/><use transform="matrix(0.009874131944444444,0,0,0.009874131944444444,97.08246527777777,0)" xlink:href="#ar"/></g><path d="M237 0v-1349h191v1193h672V0H237" id="as"/><path d="M682 16c-209 0-323-80-324-285v-671H190v-142h170l58-282h120v282h432v142H538v652c2 114 60 155 182 155 106 0 209-16 297-34v137C921-4 806 16 682 16" id="at"/><path d="M873-819c-18-114-119-146-250-146-163 0-245 50-245 151 0 151 170 148 294 185 182 54 388 94 388 320 0 240-189 325-439 329-245 4-410-69-454-268l159-31c24 133 136 168 295 165 144-2 270-31 270-171 0-164-195-160-331-202-167-52-350-87-350-299 0-218 173-315 413-313 220 2 373 77 412 260" id="au"/><path d="M839-1102c70 0 148 7 206 17v167c-112-18-268-36-363 15-129 69-208 203-208 395V0H294c-10-367 32-789-52-1082h171c21 75 41 161 48 250h5c67-152 152-270 373-270" id="av"/><g id="c"><use transform="matrix(0.007703993055555556,0,0,0.007703993055555556,0,0)" xlink:href="#as"/><use transform="matrix(0.007703993055555556,0,0,0.007703993055555556,9.468207465277779,0)" xlink:href="#an"/><use transform="matrix(0.007703993055555556,0,0,0.007703993055555556,18.936414930555557,0)" xlink:href="#ap"/><use transform="matrix(0.007703993055555556,0,0,0.007703993055555556,28.404622395833336,0)" xlink:href="#at"/><use transform="matrix(0.007703993055555556,0,0,0.007703993055555556,37.872829861111114,0)" xlink:href="#aq"/><use transform="matrix(0.007703993055555556,0,0,0.007703993055555556,47.34103732638889,0)" xlink:href="#ar"/><use transform="matrix(0.007703993055555556,0,0,0.007703993055555556,56.80924479166667,0)" xlink:href="#aq"/><use transform="matrix(0.007703993055555556,0,0,0.007703993055555556,66.27745225694446,0)" xlink:href="#au"/><use transform="matrix(0.007703993055555556,0,0,0.007703993055555556,75.74565972222223,0)" xlink:href="#aj"/><use transform="matrix(0.007703993055555556,0,0,0.007703993055555556,85.2138671875,0)" xlink:href="#at"/><use transform="matrix(0.007703993055555556,0,0,0.007703993055555556,94.68207465277777,0)" xlink:href="#al"/><use transform="matrix(0.007703993055555556,0,0,0.007703993055555556,104.15028211805554,0)" xlink:href="#ap"/><use transform="matrix(0.007703993055555556,0,0,0.007703993055555556,113.61848958333331,0)" xlink:href="#av"/></g><path d="M904-1102c199 0 220 177 220 381V0H956v-686c-3-114 0-215-60-264-70-33-125-4-158 71-26 56-39 140-39 252V0H531v-686c-3-114-1-215-61-264-78-41-136 24-157 84-24 69-39 159-39 259V0H105c-3-360 6-732-6-1082h149c6 50 3 123 8 175 36-100 83-195 216-195 135 0 166 79 196 196 42-105 93-196 236-196" id="aw"/><path d="M698-1104c312 3 392 244 392 558 0 315-82 566-392 566-169 0-277-65-331-184h-5c8 188 2 394 4 589H185V-858c0-76-1-156-6-224h175c6 52 9 120 10 178h4c58-122 150-202 330-200zm-49 991c225 0 255-203 255-433 0-225-32-419-253-419-236 0-285 192-285 441 0 237 53 411 283 411" id="ax"/><g id="d"><use transform="matrix(0.007703993055555556,0,0,0.007703993055555556,0,0)" xlink:href="#av"/><use transform="matrix(0.007703993055555556,0,0,0.007703993055555556,9.468207465277779,0)" xlink:href="#al"/><use transform="matrix(0.007703993055555556,0,0,0.007703993055555556,18.936414930555557,0)" xlink:href="#aw"/><use transform="matrix(0.007703993055555556,0,0,0.007703993055555556,28.404622395833336,0)" xlink:href="#ax"/><use transform="matrix(0.007703993055555556,0,0,0.007703993055555556,37.872829861111114,0)" xlink:href="#ar"/><use transform="matrix(0.007703993055555556,0,0,0.007703993055555556,47.34103732638889,0)" xlink:href="#aq"/><use transform="matrix(0.007703993055555556,0,0,0.007703993055555556,56.80924479166667,0)" xlink:href="#at"/></g><g id="e"><use transform="matrix(0.007703993055555556,0,0,0.007703993055555556,0,0)" xlink:href="#ar"/><use transform="matrix(0.007703993055555556,0,0,0.007703993055555556,9.468207465277779,0)" xlink:href="#al"/></g><path d="M648-963c-190 6-283 138-283 336V0H185v-1484h181c-2 197 6 404-9 587h3c62-120 159-205 339-205 242 0 351 135 350 381V0H868v-695c1-168-57-273-220-268" id="ay"/><g id="f"><use transform="matrix(0.007703993055555556,0,0,0.007703993055555556,0,0)" xlink:href="#ao"/><use transform="matrix(0.007703993055555556,0,0,0.007703993055555556,9.468207465277779,0)" xlink:href="#ay"/><use transform="matrix(0.007703993055555556,0,0,0.007703993055555556,18.936414930555557,0)" xlink:href="#aj"/><use transform="matrix(0.007703993055555556,0,0,0.007703993055555556,28.404622395833336,0)" xlink:href="#aw"/><use transform="matrix(0.007703993055555556,0,0,0.007703993055555556,37.872829861111114,0)" xlink:href="#ax"/></g><g id="g"><use transform="matrix(0.007703993055555556,0,0,0.007703993055555556,0,0)" xlink:href="#am"/><use transform="matrix(0.007703993055555556,0,0,0.007703993055555556,9.468207465277779,0)" xlink:href="#al"/></g><g id="h"><use transform="matrix(0.007703993055555556,0,0,0.007703993055555556,0,0)" xlink:href="#av"/><use transform="matrix(0.007703993055555556,0,0,0.007703993055555556,9.468207465277779,0)" xlink:href="#al"/><use transform="matrix(0.007703993055555556,0,0,0.007703993055555556,18.936414930555557,0)" xlink:href="#ao"/><use transform="matrix(0.007703993055555556,0,0,0.007703993055555556,28.404622395833336,0)" xlink:href="#ay"/><use transform="matrix(0.007703993055555556,0,0,0.007703993055555556,37.872829861111114,0)" xlink:href="#al"/><use transform="matrix(0.007703993055555556,0,0,0.007703993055555556,47.34103732638889,0)" xlink:href="#av"/><use transform="matrix(0.007703993055555556,0,0,0.007703993055555556,56.80924479166667,0)" xlink:href="#ao"/><use transform="matrix(0.007703993055555556,0,0,0.007703993055555556,66.27745225694446,0)" xlink:href="#ay"/><use transform="matrix(0.007703993055555556,0,0,0.007703993055555556,75.74565972222223,0)" xlink:href="#al"/></g><path fill="#333" d="M462-1121v384h621v228H462V0H167v-1349h939v228H462" id="az"/><path fill="#333" d="M794-190h353V0H118v-190h395v-702H223v-190h571v892zM513-1277v-207h281v207H513" id="aA"/><path fill="#333" d="M794-190h353V0H118v-190h395v-1104H223v-190h571v1294" id="aB"/><path fill="#333" d="M711 13c-250 0-386-99-385-349l2-556H161v-190h181l88-282h176v282h385v190H606v530c-10 130 45 186 174 184 91-2 176-11 255-27v186C933-1 833 13 711 13" id="aC"/><path fill="#333" d="M1113-274C1038-96 884 20 626 20c-352 0-526-209-526-566 0-358 185-556 530-556 358 0 496 251 499 615H395c5 180 68 319 245 319 102 0 186-45 208-129zM857-663c-6-177-128-307-315-247-94 30-141 121-145 247h460" id="aD"/><path fill="#333" d="M875-1102c70 0 148 7 206 17v237c-110-17-267-37-359 15-123 69-192 207-192 395V0H250c-10-367 32-789-52-1082h271c19 69 36 149 46 228h4c52-151 151-250 356-248" id="aE"/><g id="i"><use transform="matrix(0.009874131944444439,0,0,0.009874131944444439,0,0)" xlink:href="#az"/><use transform="matrix(0.009874131944444439,0,0,0.009874131944444439,12.135308159722216,0)" xlink:href="#aA"/><use transform="matrix(0.009874131944444439,0,0,0.009874131944444439,24.270616319444432,0)" xlink:href="#aB"/><use transform="matrix(0.009874131944444439,0,0,0.009874131944444439,36.40592447916665,0)" xlink:href="#aC"/><use transform="matrix(0.009874131944444439,0,0,0.009874131944444439,48.541232638888864,0)" xlink:href="#aD"/><use transform="matrix(0.009874131944444439,0,0,0.009874131944444439,60.67654079861108,0)" xlink:href="#aE"/></g><path fill="#54c45e" d="M615-1370c385 0 542 273 542 691 0 230-47 404-140 522S790 20 615 20C231 20 72-262 72-679c0-419 158-691 543-691zM797-330c77-133 78-564 0-695-44-73-101-113-182-113s-139 40-183 114c-79 133-78 560 0 694 45 77 102 118 183 118s138-41 182-118" id="aF"/><path fill="#54c45e" d="M471 20c-247 0-336-169-336-415v-687h281v607c4 148 31 285 172 285 152 0 207-150 207-312v-580h281c4 359-9 736 8 1082H816c-7-63-11-146-12-215h-5C736-76 644 20 471 20" id="aG"/><path fill="#54c45e" d="M794-190h353V0H118v-190h395v-702H223v-190h571v892zM513-1277v-207h281v207H513" id="aH"/><g id="j"><use transform="matrix(0.008680555555555556,0,0,0.008680555555555556,0,0)" xlink:href="#aF"/><use transform="matrix(0.008680555555555556,0,0,0.008680555555555556,10.668402777777779,0)" xlink:href="#aG"/><use transform="matrix(0.008680555555555556,0,0,0.008680555555555556,21.336805555555557,0)" xlink:href="#aH"/></g><path fill="#e81313" d="M865-312c-44-312-23-686-28-1037h257V0H748L364-1010c44 304 24 668 28 1010H135v-1349h337" id="aI"/><path fill="#e81313" d="M616-1102c361 0 521 202 521 560 0 354-171 562-527 562C259 20 92-192 92-542c0-351 169-560 524-560zm-9 930c200-2 236-165 236-370 0-199-27-367-223-367-195 0-233 146-233 367 0 129 18 223 55 282s92 88 165 88" id="aJ"/><path fill="#e81313" d="M768-1103c247 0 336 167 336 416V0H824v-619c-3-164-24-273-171-273-164 0-229 142-229 312V0H143c-4-359 9-736-8-1082h268c7 63 12 146 13 215h4c67-145 160-236 348-236" id="aK"/><g id="k"><use transform="matrix(0.008680555555555556,0,0,0.008680555555555556,0,0)" xlink:href="#aI"/><use transform="matrix(0.008680555555555556,0,0,0.008680555555555556,10.668402777777779,0)" xlink:href="#aJ"/><use transform="matrix(0.008680555555555556,0,0,0.008680555555555556,21.336805555555557,0)" xlink:href="#aK"/></g><path fill="#333" d="M622-916c-112 2-200 14-200 111 0 90 89 101 168 121 234 58 514 77 514 368C1104-4 751 54 434 5 267-21 161-112 121-270l247-37c24 111 113 145 252 141 114-3 226-12 226-124 0-101-103-113-192-134-225-54-490-76-490-351 0-247 201-328 458-328 245 0 413 88 457 292l-249 26c-16-98-92-133-208-131" id="aL"/><path fill="#333" d="M1113-274C1038-96 884 20 626 20c-352 0-526-209-526-566 0-358 185-556 530-556 358 0 496 251 499 615H395c5 180 68 319 245 319 102 0 186-45 208-129zM857-663c-6-177-128-307-315-247-94 30-141 121-145 247h460" id="aM"/><path fill="#333" d="M775-193C708-75 621 20 439 20 226 20 106-93 106-306c0-251 170-341 417-346l223-4c4-143-12-264-148-264-103 0-141 58-150 153l-293-14c37-219 194-321 455-321 263 0 418 130 417 390v392c1 84 5 161 89 160 21 0 42-2 62-6v152c-57 15-108 27-180 26-145 0-202-73-217-205h-6zm-256 17c168 0 234-139 227-325-166 4-347-25-347 173 0 94 33 152 120 152" id="aN"/><path fill="#333" d="M875-1102c70 0 148 7 206 17v237c-110-17-267-37-359 15-123 69-192 207-192 395V0H250c-10-367 32-789-52-1082h271c19 69 36 149 46 228h4c52-151 151-250 356-248" id="aO"/><path fill="#333" d="M1109-360C1066-122 902 20 624 20c-347 0-514-209-514-555 0-353 168-567 518-567 270 0 425 136 473 361l-283 14c-16-106-75-183-196-182-75 0-130 31-165 93s-52 152-52 270c0 249 74 374 221 374 120 0 188-82 201-201" id="aP"/><path fill="#333" d="M424-1484c-2 206 5 424-8 618h4c67-145 160-234 348-236 251-3 335 167 336 416V0H824v-621c0-150-23-276-173-270-163 7-227 142-227 312V0H143v-1484h281" id="aQ"/><path fill="#333" d="M621-530c0 421 127 700 301 955H641C466 173 344-110 344-531s122-702 297-953h281c-174 254-301 534-301 954" id="aR"/><path fill="#333" d="M745-142h380V0H143v-142h422v-798H246v-142h499v940zM545-1292v-192h200v192H545" id="aS"/><path fill="#333" d="M706-1102c241 0 344 136 343 381V0H868v-695c1-168-57-273-220-268-190 6-283 138-283 336V0H185c-3-360 6-732-6-1082h170c4 54 7 126 8 185h3c63-121 164-204 346-205" id="aT"/><path fill="#333" d="M698-1104c312 3 392 244 392 558 0 315-82 566-392 566-169 0-277-65-331-184h-5c8 188 2 394 4 589H185V-858c0-76-1-156-6-224h175c6 52 9 120 10 178h4c58-122 150-202 330-200zm-49 991c225 0 255-203 255-433 0-225-32-419-253-419-236 0-285 192-285 441 0 237 53 411 283 411" id="aU"/><path fill="#333" d="M528 20c-247 0-343-132-343-381v-721h180v686c-4 177 45 284 224 277 194-8 279-136 279-336v-627h181c3 360-6 732 6 1082H885c-4-54-7-126-8-185h-3C809-64 714 20 528 20" id="aV"/><path fill="#333" d="M682 16c-209 0-323-80-324-285v-671H190v-142h170l58-282h120v282h432v142H538v652c2 114 60 155 182 155 106 0 209-16 297-34v137C921-4 806 16 682 16" id="aW"/><path fill="#333" d="M885-531c0 421-122 704-297 956H307c174-255 301-534 301-955 0-420-127-700-301-954h281c175 251 297 532 297 953" id="aX"/><g id="l"><use transform="matrix(0.007595486111111108,0,0,0.007595486111111108,0,0)" xlink:href="#aL"/><use transform="matrix(0.007595486111111108,0,0,0.007595486111111108,9.334852430555552,0)" xlink:href="#aM"/><use transform="matrix(0.007595486111111108,0,0,0.007595486111111108,18.669704861111104,0)" xlink:href="#aN"/><use transform="matrix(0.007595486111111108,0,0,0.007595486111111108,28.004557291666657,0)" xlink:href="#aO"/><use transform="matrix(0.007595486111111108,0,0,0.007595486111111108,37.33940972222221,0)" xlink:href="#aP"/><use transform="matrix(0.007595486111111108,0,0,0.007595486111111108,46.67426215277776,0)" xlink:href="#aQ"/><use transform="matrix(0.007595486111111108,0,0,0.007595486111111108,56.00911458333331,0)" xlink:href="#aR"/><use transform="matrix(0.007595486111111108,0,0,0.007595486111111108,65.34396701388886,0)" xlink:href="#aS"/><use transform="matrix(0.007595486111111108,0,0,0.007595486111111108,74.67881944444441,0)" xlink:href="#aT"/><use transform="matrix(0.007595486111111108,0,0,0.007595486111111108,84.01367187499997,0)" xlink:href="#aU"/><use transform="matrix(0.007595486111111108,0,0,0.007595486111111108,93.34852430555553,0)" xlink:href="#aV"/><use transform="matrix(0.007595486111111108,0,0,0.007595486111111108,102.68337673611109,0)" xlink:href="#aW"/><use transform="matrix(0.007595486111111108,0,0,0.007595486111111108,112.01822916666664,0)" xlink:href="#aX"/></g><g id="m"><use transform="matrix(0.008246527777777776,0,0,0.008246527777777776,0,0)" xlink:href="#as"/><use transform="matrix(0.008246527777777776,0,0,0.008246527777777776,10.134982638888888,0)" xlink:href="#al"/></g><g id="n"><use transform="matrix(0.008246527777777776,0,0,0.008246527777777776,0,0)" xlink:href="#ao"/><use transform="matrix(0.008246527777777776,0,0,0.008246527777777776,10.134982638888888,0)" xlink:href="#ay"/><use transform="matrix(0.008246527777777776,0,0,0.008246527777777776,20.269965277777775,0)" xlink:href="#aj"/><use transform="matrix(0.008246527777777776,0,0,0.008246527777777776,30.404947916666664,0)" xlink:href="#aw"/><use transform="matrix(0.008246527777777776,0,0,0.008246527777777776,40.53993055555555,0)" xlink:href="#ax"/></g><path d="M615-1102c343 0 484 203 482 560-1 347-147 562-488 562-336 0-475-219-479-562-4-349 156-560 485-560zm-8 989c240 0 301-180 301-429 0-245-55-427-290-427-236 0-299 181-299 427 0 243 61 429 288 429" id="aY"/><path d="M706-1102c241 0 344 136 343 381V0H868v-695c1-168-57-273-220-268-190 6-283 138-283 336V0H185c-3-360 6-732-6-1082h170c4 54 7 126 8 185h3c63-121 164-204 346-205" id="aZ"/><g id="o"><use transform="matrix(0.008246527777777776,0,0,0.008246527777777776,0,0)" xlink:href="#ao"/><use transform="matrix(0.008246527777777776,0,0,0.008246527777777776,10.134982638888888,0)" xlink:href="#aY"/><use transform="matrix(0.008246527777777776,0,0,0.008246527777777776,20.269965277777775,0)" xlink:href="#aZ"/><use transform="matrix(0.008246527777777776,0,0,0.008246527777777776,30.404947916666664,0)" xlink:href="#at"/><use transform="matrix(0.008246527777777776,0,0,0.008246527777777776,40.53993055555555,0)" xlink:href="#aq"/><use transform="matrix(0.008246527777777776,0,0,0.008246527777777776,50.674913194444436,0)" xlink:href="#al"/><use transform="matrix(0.008246527777777776,0,0,0.008246527777777776,60.80989583333332,0)" xlink:href="#aZ"/><use transform="matrix(0.008246527777777776,0,0,0.008246527777777776,70.94487847222221,0)" xlink:href="#at"/></g><g id="p"><use transform="matrix(0.008246527777777776,0,0,0.008246527777777776,0,0)" xlink:href="#aj"/><use transform="matrix(0.008246527777777776,0,0,0.008246527777777776,10.134982638888888,0)" xlink:href="#ap"/></g><g id="q"><use transform="matrix(0.008246527777777776,0,0,0.008246527777777776,0,0)" xlink:href="#aw"/><use transform="matrix(0.008246527777777776,0,0,0.008246527777777776,10.134982638888888,0)" xlink:href="#aY"/><use transform="matrix(0.008246527777777776,0,0,0.008246527777777776,20.269965277777775,0)" xlink:href="#aq"/><use transform="matrix(0.008246527777777776,0,0,0.008246527777777776,30.404947916666664,0)" xlink:href="#aZ"/><use transform="matrix(0.008246527777777776,0,0,0.008246527777777776,40.53993055555555,0)" xlink:href="#au"/></g><path d="M1060-1016c0 191-128 285-295 323v4c154 18 262 91 313 209 14 35 21 72 21 110 0 277-194 390-478 390-292 0-457-129-493-382l186-17c24 161 121 250 307 250 172 1 298-80 291-247-8-208-220-239-446-233v-156c217 9 409-34 409-232 0-152-102-225-264-225-159 0-264 88-278 233l-181-14c33-239 196-367 461-367 264 0 447 102 447 354" id="ba"/><use transform="matrix(0.008246527777777776,0,0,0.008246527777777776,0,0)" xlink:href="#ba" id="r"/><path d="M617-1102c355 0 481 238 477 599H322c5 222 84 388 301 388 144 0 244-59 284-166l158 45C1002-72 854 20 623 20c-342 0-490-220-490-568 0-346 151-554 484-554zm291 461c-18-192-90-328-289-328-194 0-287 128-295 328h584zm-285-560l-300-230v-29h197l227 239v20H623" id="bb"/><g id="s"><use transform="matrix(0.008246527777777776,0,0,0.008246527777777776,0,0)" xlink:href="#ao"/><use transform="matrix(0.008246527777777776,0,0,0.008246527777777776,10.134982638888888,0)" xlink:href="#aj"/><use transform="matrix(0.008246527777777776,0,0,0.008246527777777776,20.269965277777775,0)" xlink:href="#av"/><use transform="matrix(0.008246527777777776,0,0,0.008246527777777776,30.404947916666664,0)" xlink:href="#aj"/><use transform="matrix(0.008246527777777776,0,0,0.008246527777777776,40.53993055555555,0)" xlink:href="#ao"/><use transform="matrix(0.008246527777777776,0,0,0.008246527777777776,50.674913194444436,0)" xlink:href="#at"/><use transform="matrix(0.008246527777777776,0,0,0.008246527777777776,60.80989583333332,0)" xlink:href="#bb"/><use transform="matrix(0.008246527777777776,0,0,0.008246527777777776,70.94487847222221,0)" xlink:href="#av"/><use transform="matrix(0.008246527777777776,0,0,0.008246527777777776,81.0798611111111,0)" xlink:href="#al"/><use transform="matrix(0.008246527777777776,0,0,0.008246527777777776,91.21484374999999,0)" xlink:href="#au"/></g><path d="M709-1193V0H519v-1193H76v-156h1076v156H709" id="bc"/><path d="M891-1484c-201 251-362 514-362 954 0 441 161 704 362 955H701C500 176 342-90 342-532c0-440 159-704 359-952h190" id="bd"/><path d="M528-1484c201 248 357 511 357 952 0 442-156 709-357 957H336C537 174 700-89 700-530c0-440-163-703-364-954h192" id="be"/><g id="t"><use transform="matrix(0.007595486111111112,0,0,0.007595486111111112,0,0)" xlink:href="#au"/><use transform="matrix(0.007595486111111112,0,0,0.007595486111111112,9.334852430555557,0)" xlink:href="#al"/><use transform="matrix(0.007595486111111112,0,0,0.007595486111111112,18.669704861111114,0)" xlink:href="#aj"/><use transform="matrix(0.007595486111111112,0,0,0.007595486111111112,28.00455729166667,0)" xlink:href="#av"/><use transform="matrix(0.007595486111111112,0,0,0.007595486111111112,37.33940972222223,0)" xlink:href="#ao"/><use transform="matrix(0.007595486111111112,0,0,0.007595486111111112,46.674262152777786,0)" xlink:href="#ay"/><use transform="matrix(0.007595486111111112,0,0,0.007595486111111112,56.00911458333334,0)" xlink:href="#bc"/><use transform="matrix(0.007595486111111112,0,0,0.007595486111111112,65.3439670138889,0)" xlink:href="#aq"/><use transform="matrix(0.007595486111111112,0,0,0.007595486111111112,74.67881944444446,0)" xlink:href="#at"/><use transform="matrix(0.007595486111111112,0,0,0.007595486111111112,84.01367187500001,0)" xlink:href="#ar"/><use transform="matrix(0.007595486111111112,0,0,0.007595486111111112,93.34852430555557,0)" xlink:href="#al"/><use transform="matrix(0.007595486111111112,0,0,0.007595486111111112,102.68337673611113,0)" xlink:href="#bd"/><use transform="matrix(0.007595486111111112,0,0,0.007595486111111112,112.01822916666669,0)" xlink:href="#be"/></g><path d="M473-1349c438-1 655 221 652 661C1122-268 945-8 532 0H162v-1349h311zm42 1193c308-4 416-205 418-532 2-330-131-509-459-505H353v1037h162" id="bf"/><g id="u"><use transform="matrix(0.007595486111111112,0,0,0.007595486111111112,0,0)" xlink:href="#au"/><use transform="matrix(0.007595486111111112,0,0,0.007595486111111112,9.334852430555557,0)" xlink:href="#al"/><use transform="matrix(0.007595486111111112,0,0,0.007595486111111112,18.669704861111114,0)" xlink:href="#aj"/><use transform="matrix(0.007595486111111112,0,0,0.007595486111111112,28.00455729166667,0)" xlink:href="#av"/><use transform="matrix(0.007595486111111112,0,0,0.007595486111111112,37.33940972222223,0)" xlink:href="#ao"/><use transform="matrix(0.007595486111111112,0,0,0.007595486111111112,46.674262152777786,0)" xlink:href="#ay"/><use transform="matrix(0.007595486111111112,0,0,0.007595486111111112,56.00911458333334,0)" xlink:href="#bf"/><use transform="matrix(0.007595486111111112,0,0,0.007595486111111112,65.3439670138889,0)" xlink:href="#al"/><use transform="matrix(0.007595486111111112,0,0,0.007595486111111112,74.67881944444446,0)" xlink:href="#au"/><use transform="matrix(0.007595486111111112,0,0,0.007595486111111112,84.01367187500001,0)" xlink:href="#ao"/><use transform="matrix(0.007595486111111112,0,0,0.007595486111111112,93.34852430555557,0)" xlink:href="#av"/><use transform="matrix(0.007595486111111112,0,0,0.007595486111111112,102.68337673611113,0)" xlink:href="#aq"/><use transform="matrix(0.007595486111111112,0,0,0.007595486111111112,112.01822916666669,0)" xlink:href="#ax"/><use transform="matrix(0.007595486111111112,0,0,0.007595486111111112,121.35308159722224,0)" xlink:href="#at"/><use transform="matrix(0.007595486111111112,0,0,0.007595486111111112,130.6879340277778,0)" xlink:href="#aq"/><use transform="matrix(0.007595486111111112,0,0,0.007595486111111112,140.02278645833337,0)" xlink:href="#aY"/><use transform="matrix(0.007595486111111112,0,0,0.007595486111111112,149.3576388888889,0)" xlink:href="#aZ"/><use transform="matrix(0.007595486111111112,0,0,0.007595486111111112,158.69249131944446,0)" xlink:href="#bd"/><use transform="matrix(0.007595486111111112,0,0,0.007595486111111112,168.02734375,0)" xlink:href="#be"/></g><path d="M1121-976c0 225-142 341-344 379L1177 0H957L591-575H353V0H162v-1349h482c281 3 477 100 477 373zM633-726c181-1 296-73 296-247 0-149-101-223-304-223H353v470h280" id="bg"/><path d="M617-1102c355 0 481 238 477 599H322c5 222 84 388 301 388 144 0 244-59 284-166l158 45C1002-72 854 20 623 20c-342 0-490-220-490-568 0-346 151-554 484-554zm291 461c-18-192-90-328-289-328-194 0-287 128-295 328h584zm-395-560v-20l227-239h197v29l-300 230H513" id="bh"/><g id="v"><use transform="matrix(0.00770399305555555,0,0,0.00770399305555555,0,0)" xlink:href="#bg"/><use transform="matrix(0.00770399305555555,0,0,0.00770399305555555,9.468207465277771,0)" xlink:href="#bh"/><use transform="matrix(0.00770399305555555,0,0,0.00770399305555555,18.936414930555543,0)" xlink:href="#ao"/><use transform="matrix(0.00770399305555555,0,0,0.00770399305555555,28.404622395833314,0)" xlink:href="#ap"/><use transform="matrix(0.00770399305555555,0,0,0.00770399305555555,37.872829861111086,0)" xlink:href="#ax"/><use transform="matrix(0.00770399305555555,0,0,0.00770399305555555,47.34103732638886,0)" xlink:href="#bb"/><use transform="matrix(0.00770399305555555,0,0,0.00770399305555555,56.80924479166663,0)" xlink:href="#av"/><use transform="matrix(0.00770399305555555,0,0,0.00770399305555555,66.2774522569444,0)" xlink:href="#al"/></g><g id="w"><use transform="matrix(0.00770399305555555,0,0,0.00770399305555555,0,0)" xlink:href="#at"/><use transform="matrix(0.00770399305555555,0,0,0.00770399305555555,9.468207465277771,0)" xlink:href="#aY"/><use transform="matrix(0.00770399305555555,0,0,0.00770399305555555,18.936414930555543,0)" xlink:href="#ap"/><use transform="matrix(0.00770399305555555,0,0,0.00770399305555555,28.404622395833314,0)" xlink:href="#at"/><use transform="matrix(0.00770399305555555,0,0,0.00770399305555555,37.872829861111086,0)" xlink:href="#al"/><use transform="matrix(0.00770399305555555,0,0,0.00770399305555555,47.34103732638886,0)" xlink:href="#au"/></g><g id="x"><use transform="matrix(0.00770399305555555,0,0,0.00770399305555555,0,0)" xlink:href="#ar"/><use transform="matrix(0.00770399305555555,0,0,0.00770399305555555,9.468207465277771,0)" xlink:href="#al"/><use transform="matrix(0.00770399305555555,0,0,0.00770399305555555,18.936414930555543,0)" xlink:href="#au"/></g><g id="y"><use transform="matrix(0.00770399305555555,0,0,0.00770399305555555,0,0)" xlink:href="#av"/><use transform="matrix(0.00770399305555555,0,0,0.00770399305555555,9.468207465277771,0)" xlink:href="#al"/><use transform="matrix(0.00770399305555555,0,0,0.00770399305555555,18.936414930555543,0)" xlink:href="#ao"/><use transform="matrix(0.00770399305555555,0,0,0.00770399305555555,28.404622395833314,0)" xlink:href="#al"/><use transform="matrix(0.00770399305555555,0,0,0.00770399305555555,37.872829861111086,0)" xlink:href="#at"/><use transform="matrix(0.00770399305555555,0,0,0.00770399305555555,47.34103732638886,0)" xlink:href="#at"/><use transform="matrix(0.00770399305555555,0,0,0.00770399305555555,56.80924479166663,0)" xlink:href="#al"/><use transform="matrix(0.00770399305555555,0,0,0.00770399305555555,66.2774522569444,0)" xlink:href="#au"/></g><path fill="#333" d="M237 0v-1349h191v1193h672V0H237" id="bi"/><path fill="#333" d="M745-142h380V0H143v-142h422v-798H246v-142h499v940zM545-1292v-192h200v192H545" id="bj"/><path fill="#333" d="M873-819c-18-114-119-146-250-146-163 0-245 50-245 151 0 151 170 148 294 185 182 54 388 94 388 320 0 240-189 325-439 329-245 4-410-69-454-268l159-31c24 133 136 168 295 165 144-2 270-31 270-171 0-164-195-160-331-202-167-52-350-87-350-299 0-218 173-315 413-313 220 2 373 77 412 260" id="bk"/><path fill="#333" d="M682 16c-209 0-323-80-324-285v-671H190v-142h170l58-282h120v282h432v142H538v652c2 114 60 155 182 155 106 0 209-16 297-34v137C921-4 806 16 682 16" id="bl"/><path fill="#333" d="M617-1102c355 0 481 238 477 599H322c5 222 84 388 301 388 144 0 244-59 284-166l158 45C1002-72 854 20 623 20c-342 0-490-220-490-568 0-346 151-554 484-554zm291 461c-18-192-90-328-289-328-194 0-287 128-295 328h584" id="bm"/><g id="z"><use transform="matrix(0.007595486111111112,0,0,0.007595486111111112,0,0)" xlink:href="#bi"/><use transform="matrix(0.007595486111111112,0,0,0.007595486111111112,9.334852430555557,0)" xlink:href="#bj"/><use transform="matrix(0.007595486111111112,0,0,0.007595486111111112,18.669704861111114,0)" xlink:href="#bk"/><use transform="matrix(0.007595486111111112,0,0,0.007595486111111112,28.00455729166667,0)" xlink:href="#bl"/><use transform="matrix(0.007595486111111112,0,0,0.007595486111111112,37.33940972222223,0)" xlink:href="#bm"/></g><path fill="#333" d="M865-914c-3-187-2-380-2-570h180v1261c0 76 1 155 6 223H877c-8-49-9-116-10-174h-5C801-44 708 26 530 26c-135 0-234-46-297-139s-95-232-95-419c0-377 131-566 392-566 176 0 271 63 335 184zm-286-51c-222 0-255 197-255 427 0 229 31 425 253 425 237 0 286-195 286-441 0-238-52-411-284-411" id="bn"/><g id="A"><use transform="matrix(0.007595486111111112,0,0,0.007595486111111112,0,0)" xlink:href="#bn"/><use transform="matrix(0.007595486111111112,0,0,0.007595486111111112,9.334852430555557,0)" xlink:href="#bm"/><use transform="matrix(0.007595486111111112,0,0,0.007595486111111112,18.669704861111114,0)" xlink:href="#bk"/></g><path fill="#333" d="M839-1102c70 0 148 7 206 17v167c-112-18-268-36-363 15-129 69-208 203-208 395V0H294c-10-367 32-789-52-1082h171c21 75 41 161 48 250h5c67-152 152-270 373-270" id="bo"/><path fill="#333" d="M631 20c-350 0-501-215-501-562 0-355 162-560 502-560 250 0 399 118 446 323l-192 14c-23-124-109-196-262-196-242 0-305 171-305 415 1 245 61 427 304 427 151 0 248-77 267-215l190 12C1039-107 883 20 631 20" id="bp"/><g id="B"><use transform="matrix(0.007595486111111112,0,0,0.007595486111111112,0,0)" xlink:href="#bo"/><use transform="matrix(0.007595486111111112,0,0,0.007595486111111112,9.334852430555557,0)" xlink:href="#bm"/><use transform="matrix(0.007595486111111112,0,0,0.007595486111111112,18.669704861111114,0)" xlink:href="#bp"/><use transform="matrix(0.007595486111111112,0,0,0.007595486111111112,28.00455729166667,0)" xlink:href="#bm"/><use transform="matrix(0.007595486111111112,0,0,0.007595486111111112,37.33940972222223,0)" xlink:href="#bl"/><use transform="matrix(0.007595486111111112,0,0,0.007595486111111112,46.674262152777786,0)" xlink:href="#bl"/><use transform="matrix(0.007595486111111112,0,0,0.007595486111111112,56.00911458333334,0)" xlink:href="#bm"/><use transform="matrix(0.007595486111111112,0,0,0.007595486111111112,65.3439670138889,0)" xlink:href="#bk"/></g><g id="C"><use transform="matrix(0.008246527777777778,0,0,0.008246527777777778,0,0)" xlink:href="#as"/><use transform="matrix(0.008246527777777778,0,0,0.008246527777777778,10.13498263888889,0)" xlink:href="#aj"/></g><g id="D"><use transform="matrix(0.008246527777777778,0,0,0.008246527777777778,0,0)" xlink:href="#ar"/><use transform="matrix(0.008246527777777778,0,0,0.008246527777777778,10.13498263888889,0)" xlink:href="#aq"/><use transform="matrix(0.008246527777777778,0,0,0.008246527777777778,20.26996527777778,0)" xlink:href="#au"/><use transform="matrix(0.008246527777777778,0,0,0.008246527777777778,30.404947916666668,0)" xlink:href="#at"/><use transform="matrix(0.008246527777777778,0,0,0.008246527777777778,40.53993055555556,0)" xlink:href="#al"/></g><g id="E"><use transform="matrix(0.008246527777777778,0,0,0.008246527777777778,0,0)" xlink:href="#am"/><use transform="matrix(0.008246527777777778,0,0,0.008246527777777778,10.13498263888889,0)" xlink:href="#al"/><use transform="matrix(0.008246527777777778,0,0,0.008246527777777778,20.26996527777778,0)" xlink:href="#au"/></g><g id="F"><use transform="matrix(0.008246527777777778,0,0,0.008246527777777778,0,0)" xlink:href="#at"/><use transform="matrix(0.008246527777777778,0,0,0.008246527777777778,10.13498263888889,0)" xlink:href="#aj"/><use transform="matrix(0.008246527777777778,0,0,0.008246527777777778,20.26996527777778,0)" xlink:href="#ak"/><use transform="matrix(0.008246527777777778,0,0,0.008246527777777778,30.404947916666668,0)" xlink:href="#au"/></g><g id="G"><use transform="matrix(0.008246527777777778,0,0,0.008246527777777778,0,0)" xlink:href="#ao"/><use transform="matrix(0.008246527777777778,0,0,0.008246527777777778,10.13498263888889,0)" xlink:href="#aY"/><use transform="matrix(0.008246527777777778,0,0,0.008246527777777778,20.26996527777778,0)" xlink:href="#aZ"/><use transform="matrix(0.008246527777777778,0,0,0.008246527777777778,30.404947916666668,0)" xlink:href="#at"/><use transform="matrix(0.008246527777777778,0,0,0.008246527777777778,40.53993055555556,0)" xlink:href="#aq"/><use transform="matrix(0.008246527777777778,0,0,0.008246527777777778,50.67491319444444,0)" xlink:href="#al"/><use transform="matrix(0.008246527777777778,0,0,0.008246527777777778,60.80989583333333,0)" xlink:href="#aZ"/><use transform="matrix(0.008246527777777778,0,0,0.008246527777777778,70.94487847222221,0)" xlink:href="#at"/></g><g id="H"><use transform="matrix(0.008246527777777778,0,0,0.008246527777777778,0,0)" xlink:href="#aj"/><use transform="matrix(0.008246527777777778,0,0,0.008246527777777778,10.13498263888889,0)" xlink:href="#ap"/></g><g id="I"><use transform="matrix(0.008246527777777778,0,0,0.008246527777777778,0,0)" xlink:href="#aw"/><use transform="matrix(0.008246527777777778,0,0,0.008246527777777778,10.13498263888889,0)" xlink:href="#aY"/><use transform="matrix(0.008246527777777778,0,0,0.008246527777777778,20.26996527777778,0)" xlink:href="#aq"/><use transform="matrix(0.008246527777777778,0,0,0.008246527777777778,30.404947916666668,0)" xlink:href="#aZ"/><use transform="matrix(0.008246527777777778,0,0,0.008246527777777778,40.53993055555556,0)" xlink:href="#au"/></g><path d="M148-1120c216-7 379-89 463-229h166v1204h353V0H157v-145h439v-1021c-79 124-254 184-448 194v-148" id="bq"/><use transform="matrix(0.008246527777777778,0,0,0.008246527777777778,0,0)" xlink:href="#bq" id="J"/><path d="M496 0v-299h235V0H496" id="br"/><g id="K"><use transform="matrix(0.008246527777777778,0,0,0.008246527777777778,0,0)" xlink:href="#bh"/><use transform="matrix(0.008246527777777778,0,0,0.008246527777777778,10.13498263888889,0)" xlink:href="#ar"/><use transform="matrix(0.008246527777777778,0,0,0.008246527777777778,20.26996527777778,0)" xlink:href="#bh"/><use transform="matrix(0.008246527777777778,0,0,0.008246527777777778,30.404947916666668,0)" xlink:href="#aw"/><use transform="matrix(0.008246527777777778,0,0,0.008246527777777778,40.53993055555556,0)" xlink:href="#al"/><use transform="matrix(0.008246527777777778,0,0,0.008246527777777778,50.67491319444444,0)" xlink:href="#aZ"/><use transform="matrix(0.008246527777777778,0,0,0.008246527777777778,60.80989583333333,0)" xlink:href="#at"/><use transform="matrix(0.008246527777777778,0,0,0.008246527777777778,70.94487847222221,0)" xlink:href="#br"/></g><g id="L"><use transform="matrix(0.009765625,0,0,0.009765625,0,0)" xlink:href="#bg"/><use transform="matrix(0.009765625,0,0,0.009765625,12.001953125,0)" xlink:href="#bh"/><use transform="matrix(0.009765625,0,0,0.009765625,24.00390625,0)" xlink:href="#au"/><use transform="matrix(0.009765625,0,0,0.009765625,36.005859375,0)" xlink:href="#ap"/><use transform="matrix(0.009765625,0,0,0.009765625,48.0078125,0)" xlink:href="#ar"/><use transform="matrix(0.009765625,0,0,0.009765625,60.009765625,0)" xlink:href="#at"/><use transform="matrix(0.009765625,0,0,0.009765625,72.01171875,0)" xlink:href="#aj"/><use transform="matrix(0.009765625,0,0,0.009765625,84.013671875,0)" xlink:href="#at"/></g><g id="M"><use transform="matrix(0.008680555555555556,0,0,0.008680555555555556,0,0)" xlink:href="#aF"/><use transform="matrix(0.008680555555555556,0,0,0.008680555555555556,10.668402777777779,0)" xlink:href="#aG"/><use transform="matrix(0.008680555555555556,0,0,0.008680555555555556,21.336805555555557,0)" xlink:href="#aH"/></g><g id="N"><use transform="matrix(0.008680555555555556,0,0,0.008680555555555556,0,0)" xlink:href="#aI"/><use transform="matrix(0.008680555555555556,0,0,0.008680555555555556,10.668402777777779,0)" xlink:href="#aJ"/><use transform="matrix(0.008680555555555556,0,0,0.008680555555555556,21.336805555555557,0)" xlink:href="#aK"/></g><path fill="#333" d="M616-1102c361 0 521 202 521 560 0 354-171 562-527 562C259 20 92-192 92-542c0-351 169-560 524-560zm-9 930c200-2 236-165 236-370 0-199-27-367-223-367-195 0-233 146-233 367 0 129 18 223 55 282s92 88 165 88" id="bs"/><path fill="#333" d="M775-193C708-75 621 20 439 20 226 20 106-93 106-306c0-251 170-341 417-346l223-4c4-143-12-264-148-264-103 0-141 58-150 153l-293-14c37-219 194-321 455-321 263 0 418 130 417 390v392c1 84 5 161 89 160 21 0 42-2 62-6v152c-57 15-108 27-180 26-145 0-202-73-217-205h-6zm-256 17c168 0 234-139 227-325-166 4-347-25-347 173 0 94 33 152 120 152" id="bt"/><path fill="#333" d="M1109-360C1066-122 902 20 624 20c-347 0-514-209-514-555 0-353 168-567 518-567 270 0 425 136 473 361l-283 14c-16-106-75-183-196-182-75 0-130 31-165 93s-52 152-52 270c0 249 74 374 221 374 120 0 188-82 201-201" id="bu"/><path fill="#333" d="M424-1484c-2 206 5 424-8 618h4c67-145 160-234 348-236 251-3 335 167 336 416V0H824v-621c0-150-23-276-173-270-163 7-227 142-227 312V0H143v-1484h281" id="bv"/><g id="O"><use transform="matrix(0.008680555555555556,0,0,0.008680555555555556,0,0)" xlink:href="#az"/><use transform="matrix(0.008680555555555556,0,0,0.008680555555555556,10.668402777777779,0)" xlink:href="#bs"/><use transform="matrix(0.008680555555555556,0,0,0.008680555555555556,21.336805555555557,0)" xlink:href="#aE"/><use transform="matrix(0.008680555555555556,0,0,0.008680555555555556,32.005208333333336,0)" xlink:href="#aD"/><use transform="matrix(0.008680555555555556,0,0,0.008680555555555556,42.673611111111114,0)" xlink:href="#bt"/><use transform="matrix(0.008680555555555556,0,0,0.008680555555555556,53.34201388888889,0)" xlink:href="#bu"/><use transform="matrix(0.008680555555555556,0,0,0.008680555555555556,64.01041666666667,0)" xlink:href="#bv"/></g><g id="P"><use transform="matrix(0.008246527777777778,0,0,0.008246527777777778,0,0)" xlink:href="#ao"/><use transform="matrix(0.008246527777777778,0,0,0.008246527777777778,10.13498263888889,0)" xlink:href="#aj"/><use transform="matrix(0.008246527777777778,0,0,0.008246527777777778,20.26996527777778,0)" xlink:href="#at"/><use transform="matrix(0.008246527777777778,0,0,0.008246527777777778,30.404947916666668,0)" xlink:href="#bh"/><use transform="matrix(0.008246527777777778,0,0,0.008246527777777778,40.53993055555556,0)" xlink:href="#ak"/><use transform="matrix(0.008246527777777778,0,0,0.008246527777777778,50.67491319444444,0)" xlink:href="#aY"/><use transform="matrix(0.008246527777777778,0,0,0.008246527777777778,60.80989583333333,0)" xlink:href="#av"/><use transform="matrix(0.008246527777777778,0,0,0.008246527777777778,70.94487847222221,0)" xlink:href="#aq"/><use transform="matrix(0.008246527777777778,0,0,0.008246527777777778,81.0798611111111,0)" xlink:href="#al"/></g><path d="M908-845H766l-40-639h224zm-449 0H318l-41-639h224" id="bw"/><g id="Q"><use transform="matrix(0.008246527777777778,0,0,0.008246527777777778,0,0)" xlink:href="#bw"/><use transform="matrix(0.008246527777777778,0,0,0.008246527777777778,10.13498263888889,0)" xlink:href="#aq"/><use transform="matrix(0.008246527777777778,0,0,0.008246527777777778,20.26996527777778,0)" xlink:href="#aZ"/><use transform="matrix(0.008246527777777778,0,0,0.008246527777777778,30.404947916666668,0)" xlink:href="#ak"/><use transform="matrix(0.008246527777777778,0,0,0.008246527777777778,40.53993055555556,0)" xlink:href="#av"/><use transform="matrix(0.008246527777777778,0,0,0.008246527777777778,50.67491319444444,0)" xlink:href="#bh"/><use transform="matrix(0.008246527777777778,0,0,0.008246527777777778,60.80989583333333,0)" xlink:href="#am"/><use transform="matrix(0.008246527777777778,0,0,0.008246527777777778,70.94487847222221,0)" xlink:href="#aq"/><use transform="matrix(0.008246527777777778,0,0,0.008246527777777778,81.0798611111111,0)" xlink:href="#al"/><use transform="matrix(0.008246527777777778,0,0,0.008246527777777778,91.21484374999999,0)" xlink:href="#aZ"/><use transform="matrix(0.008246527777777778,0,0,0.008246527777777778,101.34982638888887,0)" xlink:href="#at"/><use transform="matrix(0.008246527777777778,0,0,0.008246527777777778,111.48480902777776,0)" xlink:href="#bw"/></g><path fill="#333" d="M709-1193V0H519v-1193H76v-156h1076v156H709" id="bx"/><path fill="#333" d="M1000-272c3 95 12 159 101 161 21 0 41-3 59-7V-6c-44 10-86 16-139 16-141 2-191-84-197-217h-6C748-76 648 20 446 20c-207 0-318-120-318-322 0-266 194-348 454-354l236-4c12-191-40-305-222-305-140 0-220 47-232 172l-188-17c33-204 181-292 423-292 255 0 401 118 401 364v466zm-683-27c0 109 63 184 175 182 166-3 259-96 306-217 24-65 20-120 20-200-232 7-501-28-501 235" id="by"/><path fill="#333" d="M1048-32c-2 300-135 456-433 456-222-1-358-88-400-267l184-25c22 99 100 157 222 156 184-2 248-125 248-315 0-64 3-133-2-194C807-100 706-13 524-12c-306 0-381-228-381-537 0-318 85-550 400-550 164 0 271 83 325 202h3c1-60 3-134 12-185h171c-13 339-4 702-6 1050zM585-145c210-8 284-178 284-406 0-192-52-331-177-392-33-16-69-22-104-22-223 2-259 184-259 414 0 229 31 415 256 406" id="bz"/><g id="R"><use transform="matrix(0.008680555555555556,0,0,0.008680555555555556,0,0)" xlink:href="#bx"/><use transform="matrix(0.008680555555555556,0,0,0.008680555555555556,10.668402777777779,0)" xlink:href="#by"/><use transform="matrix(0.008680555555555556,0,0,0.008680555555555556,21.336805555555557,0)" xlink:href="#bz"/></g><g id="S"><use transform="matrix(0.008246527777777778,0,0,0.008246527777777778,0,0)" xlink:href="#bw"/><use transform="matrix(0.008246527777777778,0,0,0.008246527777777778,10.13498263888889,0)" xlink:href="#aj"/><use transform="matrix(0.008246527777777778,0,0,0.008246527777777778,20.26996527777778,0)" xlink:href="#ax"/><use transform="matrix(0.008246527777777778,0,0,0.008246527777777778,30.404947916666668,0)" xlink:href="#ax"/><use transform="matrix(0.008246527777777778,0,0,0.008246527777777778,40.53993055555556,0)" xlink:href="#aj"/><use transform="matrix(0.008246527777777778,0,0,0.008246527777777778,50.67491319444444,0)" xlink:href="#av"/><use transform="matrix(0.008246527777777778,0,0,0.008246527777777778,60.80989583333333,0)" xlink:href="#al"/><use transform="matrix(0.008246527777777778,0,0,0.008246527777777778,70.94487847222221,0)" xlink:href="#aq"/><use transform="matrix(0.008246527777777778,0,0,0.008246527777777778,81.0798611111111,0)" xlink:href="#ar"/><use transform="matrix(0.008246527777777778,0,0,0.008246527777777778,91.21484374999999,0)" xlink:href="#bw"/></g><g id="T"><use transform="matrix(0.008246527777777778,0,0,0.008246527777777778,0,0)" xlink:href="#bw"/><use transform="matrix(0.008246527777777778,0,0,0.008246527777777778,10.13498263888889,0)" xlink:href="#ap"/><use transform="matrix(0.008246527777777778,0,0,0.008246527777777778,20.26996527777778,0)" xlink:href="#au"/><use transform="matrix(0.008246527777777778,0,0,0.008246527777777778,30.404947916666668,0)" xlink:href="#at"/><use transform="matrix(0.008246527777777778,0,0,0.008246527777777778,40.53993055555556,0)" xlink:href="#al"/><use transform="matrix(0.008246527777777778,0,0,0.008246527777777778,50.67491319444444,0)" xlink:href="#aZ"/><use transform="matrix(0.008246527777777778,0,0,0.008246527777777778,60.80989583333333,0)" xlink:href="#au"/><use transform="matrix(0.008246527777777778,0,0,0.008246527777777778,70.94487847222221,0)" xlink:href="#aq"/><use transform="matrix(0.008246527777777778,0,0,0.008246527777777778,81.0798611111111,0)" xlink:href="#ar"/><use transform="matrix(0.008246527777777778,0,0,0.008246527777777778,91.21484374999999,0)" xlink:href="#al"/><use transform="matrix(0.008246527777777778,0,0,0.008246527777777778,101.34982638888887,0)" xlink:href="#bw"/></g><path fill="#333" d="M648-963c-190 6-283 138-283 336V0H185v-1484h181c-2 197 6 404-9 587h3c62-120 159-205 339-205 242 0 351 135 350 381V0H868v-695c1-168-57-273-220-268" id="bA"/><path fill="#333" d="M202-1349h823v156H709v1037h316V0H202v-156h316v-1037H202v-156" id="bB"/><path fill="#333" d="M706-1102c241 0 344 136 343 381V0H868v-695c1-168-57-273-220-268-190 6-283 138-283 336V0H185c-3-360 6-732-6-1082h170c4 54 7 126 8 185h3c63-121 164-204 346-205" id="bC"/><path fill="#333" d="M891-1484c-201 251-362 514-362 954 0 441 161 704 362 955H701C500 176 342-90 342-532c0-440 159-704 359-952h190" id="bD"/><path fill="#333" d="M528-1484c201 248 357 511 357 952 0 442-156 709-357 957H336C537 174 700-89 700-530c0-440-163-703-364-954h192" id="bE"/><g id="U"><use transform="matrix(0.007595486111111112,0,0,0.007595486111111112,0,0)" xlink:href="#bk"/><use transform="matrix(0.007595486111111112,0,0,0.007595486111111112,9.334852430555557,0)" xlink:href="#bm"/><use transform="matrix(0.007595486111111112,0,0,0.007595486111111112,18.669704861111114,0)" xlink:href="#by"/><use transform="matrix(0.007595486111111112,0,0,0.007595486111111112,28.00455729166667,0)" xlink:href="#bo"/><use transform="matrix(0.007595486111111112,0,0,0.007595486111111112,37.33940972222223,0)" xlink:href="#bp"/><use transform="matrix(0.007595486111111112,0,0,0.007595486111111112,46.674262152777786,0)" xlink:href="#bA"/><use transform="matrix(0.007595486111111112,0,0,0.007595486111111112,56.00911458333334,0)" xlink:href="#bB"/><use transform="matrix(0.007595486111111112,0,0,0.007595486111111112,65.3439670138889,0)" xlink:href="#bC"/><use transform="matrix(0.007595486111111112,0,0,0.007595486111111112,74.67881944444446,0)" xlink:href="#bz"/><use transform="matrix(0.007595486111111112,0,0,0.007595486111111112,84.01367187500001,0)" xlink:href="#bo"/><use transform="matrix(0.007595486111111112,0,0,0.007595486111111112,93.34852430555557,0)" xlink:href="#bm"/><use transform="matrix(0.007595486111111112,0,0,0.007595486111111112,102.68337673611113,0)" xlink:href="#bn"/><use transform="matrix(0.007595486111111112,0,0,0.007595486111111112,112.01822916666669,0)" xlink:href="#bj"/><use transform="matrix(0.007595486111111112,0,0,0.007595486111111112,121.35308159722224,0)" xlink:href="#bm"/><use transform="matrix(0.007595486111111112,0,0,0.007595486111111112,130.6879340277778,0)" xlink:href="#bC"/><use transform="matrix(0.007595486111111112,0,0,0.007595486111111112,140.02278645833337,0)" xlink:href="#bl"/><use transform="matrix(0.007595486111111112,0,0,0.007595486111111112,149.3576388888889,0)" xlink:href="#bD"/><use transform="matrix(0.007595486111111112,0,0,0.007595486111111112,158.69249131944446,0)" xlink:href="#bE"/></g><path fill="#333" d="M1034 0L896-382H333L196 0H0l510-1349h217L1228 0h-194zM847-531c-77-225-157-447-231-674-69 231-154 451-232 674h463" id="bF"/><path fill="#333" d="M698-1104c312 3 392 244 392 558 0 315-82 566-392 566-169 0-277-65-331-184h-5c8 188 2 394 4 589H185V-858c0-76-1-156-6-224h175c6 52 9 120 10 178h4c58-122 150-202 330-200zm-49 991c225 0 255-203 255-433 0-225-32-419-253-419-236 0-285 192-285 441 0 237 53 411 283 411" id="bG"/><path fill="#333" d="M736-142h380V0H134v-142h422v-1200H267v-142h469v1342" id="bH"/><g id="V"><use transform="matrix(0.007595486111111112,0,0,0.007595486111111112,0,0)" xlink:href="#bk"/><use transform="matrix(0.007595486111111112,0,0,0.007595486111111112,9.334852430555557,0)" xlink:href="#bm"/><use transform="matrix(0.007595486111111112,0,0,0.007595486111111112,18.669704861111114,0)" xlink:href="#by"/><use transform="matrix(0.007595486111111112,0,0,0.007595486111111112,28.00455729166667,0)" xlink:href="#bo"/><use transform="matrix(0.007595486111111112,0,0,0.007595486111111112,37.33940972222223,0)" xlink:href="#bp"/><use transform="matrix(0.007595486111111112,0,0,0.007595486111111112,46.674262152777786,0)" xlink:href="#bA"/><use transform="matrix(0.007595486111111112,0,0,0.007595486111111112,56.00911458333334,0)" xlink:href="#bF"/><use transform="matrix(0.007595486111111112,0,0,0.007595486111111112,65.3439670138889,0)" xlink:href="#bG"/><use transform="matrix(0.007595486111111112,0,0,0.007595486111111112,74.67881944444446,0)" xlink:href="#bG"/><use transform="matrix(0.007595486111111112,0,0,0.007595486111111112,84.01367187500001,0)" xlink:href="#bH"/><use transform="matrix(0.007595486111111112,0,0,0.007595486111111112,93.34852430555557,0)" xlink:href="#bj"/><use transform="matrix(0.007595486111111112,0,0,0.007595486111111112,102.68337673611113,0)" xlink:href="#by"/><use transform="matrix(0.007595486111111112,0,0,0.007595486111111112,112.01822916666669,0)" xlink:href="#bC"/><use transform="matrix(0.007595486111111112,0,0,0.007595486111111112,121.35308159722224,0)" xlink:href="#bp"/><use transform="matrix(0.007595486111111112,0,0,0.007595486111111112,130.6879340277778,0)" xlink:href="#bm"/><use transform="matrix(0.007595486111111112,0,0,0.007595486111111112,140.02278645833337,0)" xlink:href="#bD"/><use transform="matrix(0.007595486111111112,0,0,0.007595486111111112,149.3576388888889,0)" xlink:href="#bE"/></g><path fill="#333" d="M604-135c236 0 291-142 291-376v-838h190v859c5 340-142 510-480 510-326 0-463-164-463-492v-877h191v851c-3 222 46 363 271 363" id="bI"/><g id="W"><use transform="matrix(0.007595486111111112,0,0,0.007595486111111112,0,0)" xlink:href="#bk"/><use transform="matrix(0.007595486111111112,0,0,0.007595486111111112,9.334852430555557,0)" xlink:href="#bm"/><use transform="matrix(0.007595486111111112,0,0,0.007595486111111112,18.669704861111114,0)" xlink:href="#by"/><use transform="matrix(0.007595486111111112,0,0,0.007595486111111112,28.00455729166667,0)" xlink:href="#bo"/><use transform="matrix(0.007595486111111112,0,0,0.007595486111111112,37.33940972222223,0)" xlink:href="#bp"/><use transform="matrix(0.007595486111111112,0,0,0.007595486111111112,46.674262152777786,0)" xlink:href="#bA"/><use transform="matrix(0.007595486111111112,0,0,0.007595486111111112,56.00911458333334,0)" xlink:href="#bI"/><use transform="matrix(0.007595486111111112,0,0,0.007595486111111112,65.3439670138889,0)" xlink:href="#bk"/><use transform="matrix(0.007595486111111112,0,0,0.007595486111111112,74.67881944444446,0)" xlink:href="#bl"/><use transform="matrix(0.007595486111111112,0,0,0.007595486111111112,84.01367187500001,0)" xlink:href="#bm"/><use transform="matrix(0.007595486111111112,0,0,0.007595486111111112,93.34852430555557,0)" xlink:href="#bC"/><use transform="matrix(0.007595486111111112,0,0,0.007595486111111112,102.68337673611113,0)" xlink:href="#bk"/><use transform="matrix(0.007595486111111112,0,0,0.007595486111111112,112.01822916666669,0)" xlink:href="#bj"/><use transform="matrix(0.007595486111111112,0,0,0.007595486111111112,121.35308159722224,0)" xlink:href="#bH"/><use transform="matrix(0.007595486111111112,0,0,0.007595486111111112,130.6879340277778,0)" xlink:href="#bD"/><use transform="matrix(0.007595486111111112,0,0,0.007595486111111112,140.02278645833337,0)" xlink:href="#bE"/></g><path fill="#333" d="M1121-976c0 225-142 341-344 379L1177 0H957L591-575H353V0H162v-1349h482c281 3 477 100 477 373zM633-726c181-1 296-73 296-247 0-149-101-223-304-223H353v470h280" id="bJ"/><path fill="#333" d="M617-1102c355 0 481 238 477 599H322c5 222 84 388 301 388 144 0 244-59 284-166l158 45C1002-72 854 20 623 20c-342 0-490-220-490-568 0-346 151-554 484-554zm291 461c-18-192-90-328-289-328-194 0-287 128-295 328h584zm-395-560v-20l227-239h197v29l-300 230H513" id="bK"/><path fill="#333" d="M528 20c-247 0-343-132-343-381v-721h180v686c-4 177 45 284 224 277 194-8 279-136 279-336v-627h181c3 360-6 732 6 1082H885c-4-54-7-126-8-185h-3C809-64 714 20 528 20" id="bL"/><g id="X"><use transform="matrix(0.008680555555555556,0,0,0.008680555555555556,0,0)" xlink:href="#bJ"/><use transform="matrix(0.008680555555555556,0,0,0.008680555555555556,10.668402777777779,0)" xlink:href="#bK"/><use transform="matrix(0.008680555555555556,0,0,0.008680555555555556,21.336805555555557,0)" xlink:href="#bk"/><use transform="matrix(0.008680555555555556,0,0,0.008680555555555556,32.005208333333336,0)" xlink:href="#bL"/><use transform="matrix(0.008680555555555556,0,0,0.008680555555555556,42.673611111111114,0)" xlink:href="#bH"/><use transform="matrix(0.008680555555555556,0,0,0.008680555555555556,53.34201388888889,0)" xlink:href="#bl"/><use transform="matrix(0.008680555555555556,0,0,0.008680555555555556,64.01041666666667,0)" xlink:href="#by"/><use transform="matrix(0.008680555555555556,0,0,0.008680555555555556,74.67881944444446,0)" xlink:href="#bl"/></g><g id="Y"><use transform="matrix(0.008680555555555556,0,0,0.008680555555555556,0,0)" xlink:href="#bJ"/><use transform="matrix(0.008680555555555556,0,0,0.008680555555555556,10.668402777777779,0)" xlink:href="#bK"/><use transform="matrix(0.008680555555555556,0,0,0.008680555555555556,21.336805555555557,0)" xlink:href="#bk"/><use transform="matrix(0.008680555555555556,0,0,0.008680555555555556,32.005208333333336,0)" xlink:href="#bL"/><use transform="matrix(0.008680555555555556,0,0,0.008680555555555556,42.673611111111114,0)" xlink:href="#bH"/><use transform="matrix(0.008680555555555556,0,0,0.008680555555555556,53.34201388888889,0)" xlink:href="#bl"/><use transform="matrix(0.008680555555555556,0,0,0.008680555555555556,64.01041666666667,0)" xlink:href="#by"/><use transform="matrix(0.008680555555555556,0,0,0.008680555555555556,74.67881944444446,0)" xlink:href="#bl"/></g><path fill="#333" d="M874 0L612-392 348 0H49l406-559-387-523h303l241 354 240-354h305L770-562 1179 0H874" id="bM"/><path fill="#333" d="M496 0v-299h235V0H496zm0-783v-299h235v299H496" id="bN"/><g id="Z"><use transform="matrix(0.007595486111111112,0,0,0.007595486111111112,0,0)" xlink:href="#aD"/><use transform="matrix(0.007595486111111112,0,0,0.007595486111111112,9.334852430555557,0)" xlink:href="#bM"/><use transform="matrix(0.007595486111111112,0,0,0.007595486111111112,18.669704861111114,0)" xlink:href="#bN"/></g><g id="aa"><use transform="matrix(0.007595486111111112,0,0,0.007595486111111112,0,0)" xlink:href="#bo"/><use transform="matrix(0.007595486111111112,0,0,0.007595486111111112,9.334852430555557,0)" xlink:href="#bm"/><use transform="matrix(0.007595486111111112,0,0,0.007595486111111112,18.669704861111114,0)" xlink:href="#bk"/><use transform="matrix(0.007595486111111112,0,0,0.007595486111111112,28.00455729166667,0)" xlink:href="#bL"/><use transform="matrix(0.007595486111111112,0,0,0.007595486111111112,37.33940972222223,0)" xlink:href="#bH"/><use transform="matrix(0.007595486111111112,0,0,0.007595486111111112,46.674262152777786,0)" xlink:href="#bl"/></g><path fill="#333" d="M116-856v-148h995v148H116zm0 512v-148h995v148H116" id="bO"/><use transform="matrix(0.007595486111111112,0,0,0.007595486111111112,0,0)" xlink:href="#bO" id="ab"/><path fill="#333" d="M387-205c6 188-6 358-80 466H182c51-74 97-148 97-262h-91v-205h199zM188-876v-205h199v205H188" id="bP"/><g id="ac"><use transform="matrix(0.007595486111111112,0,0,0.007595486111111112,0,0)" xlink:href="#bk"/><use transform="matrix(0.007595486111111112,0,0,0.007595486111111112,9.334852430555557,0)" xlink:href="#bm"/><use transform="matrix(0.007595486111111112,0,0,0.007595486111111112,18.669704861111114,0)" xlink:href="#by"/><use transform="matrix(0.007595486111111112,0,0,0.007595486111111112,28.00455729166667,0)" xlink:href="#bo"/><use transform="matrix(0.007595486111111112,0,0,0.007595486111111112,37.33940972222223,0)" xlink:href="#bp"/><use transform="matrix(0.007595486111111112,0,0,0.007595486111111112,46.674262152777786,0)" xlink:href="#bA"/><use transform="matrix(0.007595486111111112,0,0,0.007595486111111112,56.00911458333334,0)" xlink:href="#bF"/><use transform="matrix(0.007595486111111112,0,0,0.007595486111111112,65.3439670138889,0)" xlink:href="#bG"/><use transform="matrix(0.007595486111111112,0,0,0.007595486111111112,74.67881944444446,0)" xlink:href="#bG"/><use transform="matrix(0.007595486111111112,0,0,0.007595486111111112,84.01367187500001,0)" xlink:href="#bH"/><use transform="matrix(0.007595486111111112,0,0,0.007595486111111112,93.34852430555557,0)" xlink:href="#bj"/><use transform="matrix(0.007595486111111112,0,0,0.007595486111111112,102.68337673611113,0)" xlink:href="#by"/><use transform="matrix(0.007595486111111112,0,0,0.007595486111111112,112.01822916666669,0)" xlink:href="#bC"/><use transform="matrix(0.007595486111111112,0,0,0.007595486111111112,121.35308159722224,0)" xlink:href="#bp"/><use transform="matrix(0.007595486111111112,0,0,0.007595486111111112,130.6879340277778,0)" xlink:href="#bm"/><use transform="matrix(0.007595486111111112,0,0,0.007595486111111112,140.02278645833337,0)" xlink:href="#bD"/><use transform="matrix(0.007595486111111112,0,0,0.007595486111111112,149.3576388888889,0)" xlink:href="#bl"/><use transform="matrix(0.007595486111111112,0,0,0.007595486111111112,158.69249131944446,0)" xlink:href="#by"/><use transform="matrix(0.007595486111111112,0,0,0.007595486111111112,168.02734375,0)" xlink:href="#bz"/><use transform="matrix(0.007595486111111112,0,0,0.007595486111111112,177.36219618055554,0)" xlink:href="#bE"/><use transform="matrix(0.007595486111111112,0,0,0.007595486111111112,186.6970486111111,0)" xlink:href="#bP"/></g><path fill="#333" d="M839-1335c-182-6-269 67-259 253h491v142H580V0H400v-940H138v-142h262c-15-293 132-408 418-402 94 2 200 7 281 21v145c-75-10-177-14-260-17" id="bQ"/><g id="ad"><use transform="matrix(0.008680555555555556,0,0,0.008680555555555556,0,0)" xlink:href="#bF"/><use transform="matrix(0.008680555555555556,0,0,0.008680555555555556,10.668402777777779,0)" xlink:href="#bQ"/><use transform="matrix(0.008680555555555556,0,0,0.008680555555555556,21.336805555555557,0)" xlink:href="#bQ"/><use transform="matrix(0.008680555555555556,0,0,0.008680555555555556,32.005208333333336,0)" xlink:href="#bj"/><use transform="matrix(0.008680555555555556,0,0,0.008680555555555556,42.673611111111114,0)" xlink:href="#bp"/><use transform="matrix(0.008680555555555556,0,0,0.008680555555555556,53.34201388888889,0)" xlink:href="#bA"/><use transform="matrix(0.008680555555555556,0,0,0.008680555555555556,64.01041666666667,0)" xlink:href="#by"/><use transform="matrix(0.008680555555555556,0,0,0.008680555555555556,74.67881944444446,0)" xlink:href="#bz"/><use transform="matrix(0.008680555555555556,0,0,0.008680555555555556,85.34722222222223,0)" xlink:href="#bm"/></g><path fill="#635dff" d="M736-142h380V0H134v-142h422v-1200H267v-142h469v1342" id="bR"/><path fill="#635dff" d="M617-1102c355 0 481 238 477 599H322c5 222 84 388 301 388 144 0 244-59 284-166l158 45C1002-72 854 20 623 20c-342 0-490-220-490-568 0-346 151-554 484-554zm291 461c-18-192-90-328-289-328-194 0-287 128-295 328h584" id="bS"/><path fill="#635dff" d="M682 16c-209 0-323-80-324-285v-671H190v-142h170l58-282h120v282h432v142H538v652c2 114 60 155 182 155 106 0 209-16 297-34v137C921-4 806 16 682 16" id="bT"/><g id="ae"><use transform="matrix(0.007595486111111112,0,0,0.007595486111111112,0,0)" xlink:href="#bR"/><use transform="matrix(0.007595486111111112,0,0,0.007595486111111112,9.334852430555557,0)" xlink:href="#bS"/><use transform="matrix(0.007595486111111112,0,0,0.007595486111111112,18.669704861111114,0)" xlink:href="#bT"/></g><g id="af"><use transform="matrix(0.007595486111111112,0,0,0.007595486111111112,0,0)" xlink:href="#av"/><use transform="matrix(0.007595486111111112,0,0,0.007595486111111112,9.334852430555557,0)" xlink:href="#al"/><use transform="matrix(0.007595486111111112,0,0,0.007595486111111112,18.669704861111114,0)" xlink:href="#au"/><use transform="matrix(0.007595486111111112,0,0,0.007595486111111112,28.00455729166667,0)" xlink:href="#ap"/><use transform="matrix(0.007595486111111112,0,0,0.007595486111111112,37.33940972222223,0)" xlink:href="#ar"/><use transform="matrix(0.007595486111111112,0,0,0.007595486111111112,46.674262152777786,0)" xlink:href="#at"/></g><path d="M116-856v-148h995v148H116zm0 512v-148h995v148H116" id="bU"/><use transform="matrix(0.007595486111111112,0,0,0.007595486111111112,0,0)" xlink:href="#bU" id="ag"/><path d="M410 425v-1909h547v139H590V286h367v139H410" id="bV"/><path d="M270 425V286h367v-1631H270v-139h547V425H270" id="bW"/><g id="ah"><use transform="matrix(0.007595486111111112,0,0,0.007595486111111112,0,0)" xlink:href="#bV"/><use transform="matrix(0.007595486111111112,0,0,0.007595486111111112,9.334852430555557,0)" xlink:href="#bW"/><use transform="matrix(0.007595486111111112,0,0,0.007595486111111112,18.669704861111114,0)" xlink:href="#bP"/></g></defs></g></svg>